M48
;DRILL file {KiCad (2015-12-18 BZR 6383, Git 02d9bbb)-product} date Sun 17 Jan 2016 02:02:17 PM EET
;FORMAT={-:-/ absolute / inch / decimal}
FMAT,2
INCH,TZ
T1C0.016
T2C0.040
%
G90
G05
M72
T1
X1.7886Y-2.5854
X1.8476Y-3.0677
X1.8659Y-2.5815
X1.8969Y-3.048
X1.9362Y-3.2744
X1.9559Y-2.7921
X2.0051Y-3.048
X2.074Y-3.2252
X2.0839Y-2.6543
X2.1035Y-3.048
X2.1126Y-2.7897
X2.1626Y-2.7897
X2.1724Y-2.6543
X2.2626Y-2.7897
X2.2626Y-2.9397
X2.3693Y-2.4771
X2.4283Y-3.2252
X2.4579Y-3.1858
X2.4776Y-3.0972
X2.5071Y-3.1464
X2.5268Y-2.7114
X2.5366Y-2.5854
X2.6033Y-3.186
X2.6212Y-3.1251
X2.6646Y-3.0086
X2.7402Y-2.723
X2.8122Y-2.9675
X2.8122Y-3.0197
X2.8122Y-3.0972
X2.8516Y-2.7035
X2.8909Y-2.7134
X2.9205Y-2.6149
X2.95Y-2.5165
X2.9598Y-2.7035
T2
X2.9402Y-2.9661
X2.9402Y-3.0661
X2.9402Y-3.1661
X2.9402Y-3.2661
T0
M30
