G04 #@! TF.FileFunction,Paste,Top*
%FSLAX46Y46*%
G04 Gerber Fmt 4.6, Leading zero omitted, Abs format (unit mm)*
G04 Created by KiCad (PCBNEW (2015-11-11 BZR 6309, Git 34f1c0e)-product) date Mon 07 Dec 2015 11:04:15 PM EET*
%MOMM*%
G01*
G04 APERTURE LIST*
%ADD10C,0.100000*%
%ADD11R,0.800000X0.750000*%
%ADD12R,0.750000X0.800000*%
%ADD13R,1.000000X1.250000*%
%ADD14R,0.797560X0.797560*%
%ADD15R,0.450000X0.590000*%
%ADD16R,1.700000X0.900000*%
%ADD17R,0.500000X0.900000*%
%ADD18R,0.900000X0.500000*%
%ADD19O,2.400000X1.100000*%
%ADD20R,1.100000X2.400000*%
%ADD21O,1.100000X2.400000*%
%ADD22R,3.657600X2.032000*%
%ADD23R,1.016000X2.032000*%
%ADD24R,0.600000X0.420000*%
%ADD25R,0.700000X1.800000*%
%ADD26R,1.600000X2.200000*%
G04 APERTURE END LIST*
D10*
D11*
X51574000Y-81978500D03*
X53074000Y-81978500D03*
D12*
X61849000Y-79934500D03*
X61849000Y-78434500D03*
D13*
X69707000Y-73977500D03*
X67707000Y-73977500D03*
X63897000Y-73977500D03*
X65897000Y-73977500D03*
D14*
X59423300Y-83629500D03*
X57924700Y-83629500D03*
X56248300Y-83629500D03*
X54749700Y-83629500D03*
D15*
X72644000Y-79604500D03*
X72644000Y-77494500D03*
D16*
X72644000Y-83809500D03*
X72644000Y-80909500D03*
D17*
X59424000Y-81978500D03*
X57924000Y-81978500D03*
X49899000Y-81978500D03*
X48399000Y-81978500D03*
X45224000Y-81978500D03*
X46724000Y-81978500D03*
X56249000Y-81978500D03*
X54749000Y-81978500D03*
D18*
X72644000Y-74624500D03*
X72644000Y-76124500D03*
X72644000Y-71449500D03*
X72644000Y-72949500D03*
D17*
X46724000Y-61404500D03*
X45224000Y-61404500D03*
X49899000Y-61404500D03*
X48399000Y-61404500D03*
X55384000Y-61404500D03*
X56884000Y-61404500D03*
D19*
X60875201Y-76729500D03*
X60875201Y-74729500D03*
X60875201Y-72729500D03*
X60875201Y-70729500D03*
X60875201Y-68729500D03*
X60875201Y-66729500D03*
D20*
X45125201Y-79719500D03*
D21*
X47125201Y-79719500D03*
X49125201Y-79719500D03*
X51125201Y-79719500D03*
X53125201Y-79719500D03*
X55125201Y-79719500D03*
X57125201Y-79719500D03*
X59125201Y-79719500D03*
X59125201Y-63719500D03*
X57125201Y-63719500D03*
X55125201Y-63719500D03*
X53125201Y-63719500D03*
X51125201Y-63719500D03*
X49125201Y-63719500D03*
X47125201Y-63719500D03*
X45125201Y-63719500D03*
D22*
X66929000Y-83121500D03*
D23*
X66929000Y-76517500D03*
X64643000Y-76517500D03*
X69215000Y-76517500D03*
D24*
X66929000Y-70675500D03*
X66929000Y-70025500D03*
X66929000Y-69375500D03*
X65029000Y-69375500D03*
X65029000Y-70025500D03*
X65029000Y-70675500D03*
D25*
X64324000Y-65799500D03*
X65574000Y-65799500D03*
X66824000Y-65799500D03*
X68074000Y-65799500D03*
X69324000Y-65799500D03*
X70574000Y-65799500D03*
D26*
X62074000Y-62499500D03*
X72824000Y-62499500D03*
M02*
