G04 #@! TF.FileFunction,Legend,Bot*
%FSLAX46Y46*%
G04 Gerber Fmt 4.6, Leading zero omitted, Abs format (unit mm)*
G04 Created by KiCad (PCBNEW (2015-12-18 BZR 6383, Git 02d9bbb)-product) date Sun 17 Jan 2016 02:01:38 PM EET*
%MOMM*%
G01*
G04 APERTURE LIST*
%ADD10C,0.100000*%
%ADD11C,0.300000*%
%ADD12C,0.150000*%
G04 APERTURE END LIST*
D10*
D11*
X66423572Y-81133071D02*
X66423572Y-80133071D01*
X66423572Y-79633071D02*
X66495001Y-79704500D01*
X66423572Y-79775929D01*
X66352144Y-79704500D01*
X66423572Y-79633071D01*
X66423572Y-79775929D01*
X65709286Y-81133071D02*
X65709286Y-80133071D01*
X65709286Y-80275929D02*
X65637858Y-80204500D01*
X65495000Y-80133071D01*
X65280715Y-80133071D01*
X65137858Y-80204500D01*
X65066429Y-80347357D01*
X65066429Y-81133071D01*
X65066429Y-80347357D02*
X64995000Y-80204500D01*
X64852143Y-80133071D01*
X64637858Y-80133071D01*
X64495000Y-80204500D01*
X64423572Y-80347357D01*
X64423572Y-81133071D01*
X63709286Y-80133071D02*
X63709286Y-81633071D01*
X63709286Y-80204500D02*
X63566429Y-80133071D01*
X63280715Y-80133071D01*
X63137858Y-80204500D01*
X63066429Y-80275929D01*
X62995000Y-80418786D01*
X62995000Y-80847357D01*
X63066429Y-80990214D01*
X63137858Y-81061643D01*
X63280715Y-81133071D01*
X63566429Y-81133071D01*
X63709286Y-81061643D01*
X62352143Y-81133071D02*
X62352143Y-80133071D01*
X62352143Y-80418786D02*
X62280715Y-80275929D01*
X62209286Y-80204500D01*
X62066429Y-80133071D01*
X61923572Y-80133071D01*
X61423572Y-81133071D02*
X61423572Y-80133071D01*
X61423572Y-79633071D02*
X61495001Y-79704500D01*
X61423572Y-79775929D01*
X61352144Y-79704500D01*
X61423572Y-79633071D01*
X61423572Y-79775929D01*
X60709286Y-81133071D02*
X60709286Y-80133071D01*
X60709286Y-80275929D02*
X60637858Y-80204500D01*
X60495000Y-80133071D01*
X60280715Y-80133071D01*
X60137858Y-80204500D01*
X60066429Y-80347357D01*
X60066429Y-81133071D01*
X60066429Y-80347357D02*
X59995000Y-80204500D01*
X59852143Y-80133071D01*
X59637858Y-80133071D01*
X59495000Y-80204500D01*
X59423572Y-80347357D01*
X59423572Y-81133071D01*
X58066429Y-80133071D02*
X58066429Y-81133071D01*
X58709286Y-80133071D02*
X58709286Y-80918786D01*
X58637858Y-81061643D01*
X58495000Y-81133071D01*
X58280715Y-81133071D01*
X58137858Y-81061643D01*
X58066429Y-80990214D01*
X57423572Y-81061643D02*
X57280715Y-81133071D01*
X56995000Y-81133071D01*
X56852143Y-81061643D01*
X56780715Y-80918786D01*
X56780715Y-80847357D01*
X56852143Y-80704500D01*
X56995000Y-80633071D01*
X57209286Y-80633071D01*
X57352143Y-80561643D01*
X57423572Y-80418786D01*
X57423572Y-80347357D01*
X57352143Y-80204500D01*
X57209286Y-80133071D01*
X56995000Y-80133071D01*
X56852143Y-80204500D01*
X56137857Y-80990214D02*
X56066429Y-81061643D01*
X56137857Y-81133071D01*
X56209286Y-81061643D01*
X56137857Y-80990214D01*
X56137857Y-81133071D01*
X55209285Y-81133071D02*
X55352143Y-81061643D01*
X55423571Y-80918786D01*
X55423571Y-79633071D01*
X54780714Y-80133071D02*
X54423571Y-81133071D01*
X54066429Y-80133071D01*
X52423572Y-79561643D02*
X53709286Y-81490214D01*
X51923571Y-81133071D02*
X51923571Y-80133071D01*
X51923571Y-80275929D02*
X51852143Y-80204500D01*
X51709285Y-80133071D01*
X51495000Y-80133071D01*
X51352143Y-80204500D01*
X51280714Y-80347357D01*
X51280714Y-81133071D01*
X51280714Y-80347357D02*
X51209285Y-80204500D01*
X51066428Y-80133071D01*
X50852143Y-80133071D01*
X50709285Y-80204500D01*
X50637857Y-80347357D01*
X50637857Y-81133071D01*
X49280714Y-81133071D02*
X49280714Y-80347357D01*
X49352143Y-80204500D01*
X49495000Y-80133071D01*
X49780714Y-80133071D01*
X49923571Y-80204500D01*
X49280714Y-81061643D02*
X49423571Y-81133071D01*
X49780714Y-81133071D01*
X49923571Y-81061643D01*
X49995000Y-80918786D01*
X49995000Y-80775929D01*
X49923571Y-80633071D01*
X49780714Y-80561643D01*
X49423571Y-80561643D01*
X49280714Y-80490214D01*
X48709285Y-80133071D02*
X48352142Y-81133071D01*
X47995000Y-80133071D01*
X47209285Y-81133071D02*
X47352143Y-81061643D01*
X47423571Y-80918786D01*
X47423571Y-79633071D01*
X46637857Y-81133071D02*
X46637857Y-80133071D01*
X46637857Y-79633071D02*
X46709286Y-79704500D01*
X46637857Y-79775929D01*
X46566429Y-79704500D01*
X46637857Y-79633071D01*
X46637857Y-79775929D01*
X45923571Y-80133071D02*
X45923571Y-81133071D01*
X45923571Y-80275929D02*
X45852143Y-80204500D01*
X45709285Y-80133071D01*
X45495000Y-80133071D01*
X45352143Y-80204500D01*
X45280714Y-80347357D01*
X45280714Y-81133071D01*
X44566428Y-81133071D02*
X44566428Y-79633071D01*
X44423571Y-80561643D02*
X43995000Y-81133071D01*
X43995000Y-80133071D02*
X44566428Y-80704500D01*
X51100712Y-84816071D02*
X51600712Y-84101786D01*
X51957855Y-84816071D02*
X51957855Y-83316071D01*
X51386427Y-83316071D01*
X51243569Y-83387500D01*
X51172141Y-83458929D01*
X51100712Y-83601786D01*
X51100712Y-83816071D01*
X51172141Y-83958929D01*
X51243569Y-84030357D01*
X51386427Y-84101786D01*
X51957855Y-84101786D01*
X50672141Y-83316071D02*
X50172141Y-84816071D01*
X49672141Y-83316071D01*
X49243570Y-83458929D02*
X49172141Y-83387500D01*
X49029284Y-83316071D01*
X48672141Y-83316071D01*
X48529284Y-83387500D01*
X48457855Y-83458929D01*
X48386427Y-83601786D01*
X48386427Y-83744643D01*
X48457855Y-83958929D01*
X49314998Y-84816071D01*
X48386427Y-84816071D01*
X47457856Y-83316071D02*
X47314999Y-83316071D01*
X47172142Y-83387500D01*
X47100713Y-83458929D01*
X47029284Y-83601786D01*
X46957856Y-83887500D01*
X46957856Y-84244643D01*
X47029284Y-84530357D01*
X47100713Y-84673214D01*
X47172142Y-84744643D01*
X47314999Y-84816071D01*
X47457856Y-84816071D01*
X47600713Y-84744643D01*
X47672142Y-84673214D01*
X47743570Y-84530357D01*
X47814999Y-84244643D01*
X47814999Y-83887500D01*
X47743570Y-83601786D01*
X47672142Y-83458929D01*
X47600713Y-83387500D01*
X47457856Y-83316071D01*
X45529285Y-84816071D02*
X46386428Y-84816071D01*
X45957856Y-84816071D02*
X45957856Y-83316071D01*
X46100713Y-83530357D01*
X46243571Y-83673214D01*
X46386428Y-83744643D01*
X44243571Y-83316071D02*
X44529285Y-83316071D01*
X44672142Y-83387500D01*
X44743571Y-83458929D01*
X44886428Y-83673214D01*
X44957857Y-83958929D01*
X44957857Y-84530357D01*
X44886428Y-84673214D01*
X44815000Y-84744643D01*
X44672142Y-84816071D01*
X44386428Y-84816071D01*
X44243571Y-84744643D01*
X44172142Y-84673214D01*
X44100714Y-84530357D01*
X44100714Y-84173214D01*
X44172142Y-84030357D01*
X44243571Y-83958929D01*
X44386428Y-83887500D01*
X44672142Y-83887500D01*
X44815000Y-83958929D01*
X44886428Y-84030357D01*
X44957857Y-84173214D01*
X73465714Y-65698071D02*
X73465714Y-64198071D01*
X72965714Y-65269500D01*
X72465714Y-64198071D01*
X72465714Y-65698071D01*
X71822857Y-65269500D02*
X71108571Y-65269500D01*
X71965714Y-65698071D02*
X71465714Y-64198071D01*
X70965714Y-65698071D01*
X70680000Y-64198071D02*
X70180000Y-65698071D01*
X69680000Y-64198071D01*
X68465714Y-65698071D02*
X69180000Y-65698071D01*
X69180000Y-64198071D01*
X67965714Y-65698071D02*
X67965714Y-64698071D01*
X67965714Y-64198071D02*
X68037143Y-64269500D01*
X67965714Y-64340929D01*
X67894286Y-64269500D01*
X67965714Y-64198071D01*
X67965714Y-64340929D01*
X67251428Y-64698071D02*
X67251428Y-65698071D01*
X67251428Y-64840929D02*
X67180000Y-64769500D01*
X67037142Y-64698071D01*
X66822857Y-64698071D01*
X66680000Y-64769500D01*
X66608571Y-64912357D01*
X66608571Y-65698071D01*
X65894285Y-65698071D02*
X65894285Y-64198071D01*
X65751428Y-65126643D02*
X65322857Y-65698071D01*
X65322857Y-64698071D02*
X65894285Y-65269500D01*
X71430000Y-66598071D02*
X71072857Y-68098071D01*
X70787143Y-67026643D01*
X70501429Y-68098071D01*
X70144286Y-66598071D01*
X69572857Y-68098071D02*
X69572857Y-67098071D01*
X69572857Y-66598071D02*
X69644286Y-66669500D01*
X69572857Y-66740929D01*
X69501429Y-66669500D01*
X69572857Y-66598071D01*
X69572857Y-66740929D01*
X68358571Y-67312357D02*
X68858571Y-67312357D01*
X68858571Y-68098071D02*
X68858571Y-66598071D01*
X68144285Y-66598071D01*
X67572857Y-68098071D02*
X67572857Y-67098071D01*
X67572857Y-66598071D02*
X67644286Y-66669500D01*
X67572857Y-66740929D01*
X67501429Y-66669500D01*
X67572857Y-66598071D01*
X67572857Y-66740929D01*
X76465713Y-70498071D02*
X76465713Y-68998071D01*
X76465713Y-69569500D02*
X76322856Y-69498071D01*
X76037142Y-69498071D01*
X75894285Y-69569500D01*
X75822856Y-69640929D01*
X75751427Y-69783786D01*
X75751427Y-70212357D01*
X75822856Y-70355214D01*
X75894285Y-70426643D01*
X76037142Y-70498071D01*
X76322856Y-70498071D01*
X76465713Y-70426643D01*
X75108570Y-70498071D02*
X75108570Y-69498071D01*
X75108570Y-69783786D02*
X75037142Y-69640929D01*
X74965713Y-69569500D01*
X74822856Y-69498071D01*
X74679999Y-69498071D01*
X74179999Y-70498071D02*
X74179999Y-69498071D01*
X74179999Y-68998071D02*
X74251428Y-69069500D01*
X74179999Y-69140929D01*
X74108571Y-69069500D01*
X74179999Y-68998071D01*
X74179999Y-69140929D01*
X72822856Y-70498071D02*
X72822856Y-68998071D01*
X72822856Y-70426643D02*
X72965713Y-70498071D01*
X73251427Y-70498071D01*
X73394285Y-70426643D01*
X73465713Y-70355214D01*
X73537142Y-70212357D01*
X73537142Y-69783786D01*
X73465713Y-69640929D01*
X73394285Y-69569500D01*
X73251427Y-69498071D01*
X72965713Y-69498071D01*
X72822856Y-69569500D01*
X71465713Y-69498071D02*
X71465713Y-70712357D01*
X71537142Y-70855214D01*
X71608570Y-70926643D01*
X71751427Y-70998071D01*
X71965713Y-70998071D01*
X72108570Y-70926643D01*
X71465713Y-70426643D02*
X71608570Y-70498071D01*
X71894284Y-70498071D01*
X72037142Y-70426643D01*
X72108570Y-70355214D01*
X72179999Y-70212357D01*
X72179999Y-69783786D01*
X72108570Y-69640929D01*
X72037142Y-69569500D01*
X71894284Y-69498071D01*
X71608570Y-69498071D01*
X71465713Y-69569500D01*
X70179999Y-70426643D02*
X70322856Y-70498071D01*
X70608570Y-70498071D01*
X70751427Y-70426643D01*
X70822856Y-70283786D01*
X70822856Y-69712357D01*
X70751427Y-69569500D01*
X70608570Y-69498071D01*
X70322856Y-69498071D01*
X70179999Y-69569500D01*
X70108570Y-69712357D01*
X70108570Y-69855214D01*
X70822856Y-69998071D01*
X68322856Y-70498071D02*
X68322856Y-69498071D01*
X68322856Y-69783786D02*
X68251428Y-69640929D01*
X68179999Y-69569500D01*
X68037142Y-69498071D01*
X67894285Y-69498071D01*
X66822857Y-70426643D02*
X66965714Y-70498071D01*
X67251428Y-70498071D01*
X67394285Y-70426643D01*
X67465714Y-70283786D01*
X67465714Y-69712357D01*
X67394285Y-69569500D01*
X67251428Y-69498071D01*
X66965714Y-69498071D01*
X66822857Y-69569500D01*
X66751428Y-69712357D01*
X66751428Y-69855214D01*
X67465714Y-69998071D01*
X66251428Y-69498071D02*
X65894285Y-70498071D01*
X65537143Y-69498071D01*
X64965714Y-70355214D02*
X64894286Y-70426643D01*
X64965714Y-70498071D01*
X65037143Y-70426643D01*
X64965714Y-70355214D01*
X64965714Y-70498071D01*
X63180000Y-69140929D02*
X63108571Y-69069500D01*
X62965714Y-68998071D01*
X62608571Y-68998071D01*
X62465714Y-69069500D01*
X62394285Y-69140929D01*
X62322857Y-69283786D01*
X62322857Y-69426643D01*
X62394285Y-69640929D01*
X63251428Y-70498071D01*
X62322857Y-70498071D01*
X72037143Y-74669500D02*
X72180000Y-74598071D01*
X72394286Y-74598071D01*
X72608571Y-74669500D01*
X72751429Y-74812357D01*
X72822857Y-74955214D01*
X72894286Y-75240929D01*
X72894286Y-75455214D01*
X72822857Y-75740929D01*
X72751429Y-75883786D01*
X72608571Y-76026643D01*
X72394286Y-76098071D01*
X72251429Y-76098071D01*
X72037143Y-76026643D01*
X71965714Y-75955214D01*
X71965714Y-75455214D01*
X72251429Y-75455214D01*
X71322857Y-76098071D02*
X71322857Y-74598071D01*
X70465714Y-76098071D01*
X70465714Y-74598071D01*
X69751428Y-76098071D02*
X69751428Y-74598071D01*
X69394285Y-74598071D01*
X69180000Y-74669500D01*
X69037142Y-74812357D01*
X68965714Y-74955214D01*
X68894285Y-75240929D01*
X68894285Y-75455214D01*
X68965714Y-75740929D01*
X69037142Y-75883786D01*
X69180000Y-76026643D01*
X69394285Y-76098071D01*
X69751428Y-76098071D01*
X73037143Y-77093071D02*
X72180000Y-77093071D01*
X72608571Y-78593071D02*
X72608571Y-77093071D01*
X71822857Y-77093071D02*
X70822857Y-78593071D01*
X70822857Y-77093071D02*
X71822857Y-78593071D01*
X70251429Y-78593071D02*
X70251429Y-77093071D01*
X69894286Y-77093071D01*
X69680001Y-77164500D01*
X69537143Y-77307357D01*
X69465715Y-77450214D01*
X69394286Y-77735929D01*
X69394286Y-77950214D01*
X69465715Y-78235929D01*
X69537143Y-78378786D01*
X69680001Y-78521643D01*
X69894286Y-78593071D01*
X70251429Y-78593071D01*
X71965714Y-81133071D02*
X72465714Y-80418786D01*
X72822857Y-81133071D02*
X72822857Y-79633071D01*
X72251429Y-79633071D01*
X72108571Y-79704500D01*
X72037143Y-79775929D01*
X71965714Y-79918786D01*
X71965714Y-80133071D01*
X72037143Y-80275929D01*
X72108571Y-80347357D01*
X72251429Y-80418786D01*
X72822857Y-80418786D01*
X71465714Y-79633071D02*
X70465714Y-81133071D01*
X70465714Y-79633071D02*
X71465714Y-81133071D01*
X69894286Y-81133071D02*
X69894286Y-79633071D01*
X69537143Y-79633071D01*
X69322858Y-79704500D01*
X69180000Y-79847357D01*
X69108572Y-79990214D01*
X69037143Y-80275929D01*
X69037143Y-80490214D01*
X69108572Y-80775929D01*
X69180000Y-80918786D01*
X69322858Y-81061643D01*
X69537143Y-81133071D01*
X69894286Y-81133071D01*
X72787143Y-82173071D02*
X72287143Y-83673071D01*
X71787143Y-82173071D01*
X71287143Y-83673071D02*
X71287143Y-82173071D01*
X70572857Y-83673071D02*
X70572857Y-82173071D01*
X69715714Y-83673071D01*
X69715714Y-82173071D01*
X68001428Y-82173071D02*
X67072857Y-82173071D01*
X67572857Y-82744500D01*
X67358571Y-82744500D01*
X67215714Y-82815929D01*
X67144285Y-82887357D01*
X67072857Y-83030214D01*
X67072857Y-83387357D01*
X67144285Y-83530214D01*
X67215714Y-83601643D01*
X67358571Y-83673071D01*
X67787143Y-83673071D01*
X67930000Y-83601643D01*
X68001428Y-83530214D01*
X66430000Y-83530214D02*
X66358572Y-83601643D01*
X66430000Y-83673071D01*
X66501429Y-83601643D01*
X66430000Y-83530214D01*
X66430000Y-83673071D01*
X65858571Y-82173071D02*
X64930000Y-82173071D01*
X65430000Y-82744500D01*
X65215714Y-82744500D01*
X65072857Y-82815929D01*
X65001428Y-82887357D01*
X64930000Y-83030214D01*
X64930000Y-83387357D01*
X65001428Y-83530214D01*
X65072857Y-83601643D01*
X65215714Y-83673071D01*
X65644286Y-83673071D01*
X65787143Y-83601643D01*
X65858571Y-83530214D01*
X64287143Y-83101643D02*
X63144286Y-83101643D01*
X61787143Y-82173071D02*
X62072857Y-82173071D01*
X62215714Y-82244500D01*
X62287143Y-82315929D01*
X62430000Y-82530214D01*
X62501429Y-82815929D01*
X62501429Y-83387357D01*
X62430000Y-83530214D01*
X62358572Y-83601643D01*
X62215714Y-83673071D01*
X61930000Y-83673071D01*
X61787143Y-83601643D01*
X61715714Y-83530214D01*
X61644286Y-83387357D01*
X61644286Y-83030214D01*
X61715714Y-82887357D01*
X61787143Y-82815929D01*
X61930000Y-82744500D01*
X62215714Y-82744500D01*
X62358572Y-82815929D01*
X62430000Y-82887357D01*
X62501429Y-83030214D01*
X61215715Y-82173071D02*
X60715715Y-83673071D01*
X60215715Y-82173071D01*
D12*
X57597000Y-76320500D02*
G75*
G03X57597000Y-76320500I-127000J0D01*
G01*
X59319381Y-71645405D02*
X58319381Y-71645405D01*
X58319381Y-72026358D01*
X58367000Y-72121596D01*
X58414619Y-72169215D01*
X58509857Y-72216834D01*
X58652714Y-72216834D01*
X58747952Y-72169215D01*
X58795571Y-72121596D01*
X58843190Y-72026358D01*
X58843190Y-71645405D01*
X58319381Y-72550167D02*
X58319381Y-73169215D01*
X58700333Y-72835881D01*
X58700333Y-72978739D01*
X58747952Y-73073977D01*
X58795571Y-73121596D01*
X58890810Y-73169215D01*
X59128905Y-73169215D01*
X59224143Y-73121596D01*
X59271762Y-73073977D01*
X59319381Y-72978739D01*
X59319381Y-72693024D01*
X59271762Y-72597786D01*
X59224143Y-72550167D01*
X62334762Y-84121881D02*
X62096667Y-85121881D01*
X61906190Y-84407595D01*
X61715714Y-85121881D01*
X61477619Y-84121881D01*
X60572857Y-85121881D02*
X61144286Y-85121881D01*
X60858572Y-85121881D02*
X60858572Y-84121881D01*
X60953810Y-84264738D01*
X61049048Y-84359976D01*
X61144286Y-84407595D01*
X50584762Y-72371881D02*
X50346667Y-73371881D01*
X50156190Y-72657595D01*
X49965714Y-73371881D01*
X49727619Y-72371881D01*
X49394286Y-72467119D02*
X49346667Y-72419500D01*
X49251429Y-72371881D01*
X49013333Y-72371881D01*
X48918095Y-72419500D01*
X48870476Y-72467119D01*
X48822857Y-72562357D01*
X48822857Y-72657595D01*
X48870476Y-72800452D01*
X49441905Y-73371881D01*
X48822857Y-73371881D01*
X54584762Y-83911881D02*
X54346667Y-84911881D01*
X54156190Y-84197595D01*
X53965714Y-84911881D01*
X53727619Y-83911881D01*
X53441905Y-83911881D02*
X52822857Y-83911881D01*
X53156191Y-84292833D01*
X53013333Y-84292833D01*
X52918095Y-84340452D01*
X52870476Y-84388071D01*
X52822857Y-84483310D01*
X52822857Y-84721405D01*
X52870476Y-84816643D01*
X52918095Y-84864262D01*
X53013333Y-84911881D01*
X53299048Y-84911881D01*
X53394286Y-84864262D01*
X53441905Y-84816643D01*
X53834762Y-65121881D02*
X53596667Y-66121881D01*
X53406190Y-65407595D01*
X53215714Y-66121881D01*
X52977619Y-65121881D01*
X52168095Y-65455214D02*
X52168095Y-66121881D01*
X52406191Y-65074262D02*
X52644286Y-65788548D01*
X52025238Y-65788548D01*
X48084762Y-74871881D02*
X47846667Y-75871881D01*
X47656190Y-75157595D01*
X47465714Y-75871881D01*
X47227619Y-74871881D01*
X46370476Y-74871881D02*
X46846667Y-74871881D01*
X46894286Y-75348071D01*
X46846667Y-75300452D01*
X46751429Y-75252833D01*
X46513333Y-75252833D01*
X46418095Y-75300452D01*
X46370476Y-75348071D01*
X46322857Y-75443310D01*
X46322857Y-75681405D01*
X46370476Y-75776643D01*
X46418095Y-75824262D01*
X46513333Y-75871881D01*
X46751429Y-75871881D01*
X46846667Y-75824262D01*
X46894286Y-75776643D01*
X49584762Y-76871881D02*
X49346667Y-77871881D01*
X49156190Y-77157595D01*
X48965714Y-77871881D01*
X48727619Y-76871881D01*
X47918095Y-76871881D02*
X48108572Y-76871881D01*
X48203810Y-76919500D01*
X48251429Y-76967119D01*
X48346667Y-77109976D01*
X48394286Y-77300452D01*
X48394286Y-77681405D01*
X48346667Y-77776643D01*
X48299048Y-77824262D01*
X48203810Y-77871881D01*
X48013333Y-77871881D01*
X47918095Y-77824262D01*
X47870476Y-77776643D01*
X47822857Y-77681405D01*
X47822857Y-77443310D01*
X47870476Y-77348071D01*
X47918095Y-77300452D01*
X48013333Y-77252833D01*
X48203810Y-77252833D01*
X48299048Y-77300452D01*
X48346667Y-77348071D01*
X48394286Y-77443310D01*
X56584762Y-76871881D02*
X56346667Y-77871881D01*
X56156190Y-77157595D01*
X55965714Y-77871881D01*
X55727619Y-76871881D01*
X55441905Y-76871881D02*
X54775238Y-76871881D01*
X55203810Y-77871881D01*
X56084762Y-65121881D02*
X55846667Y-66121881D01*
X55656190Y-65407595D01*
X55465714Y-66121881D01*
X55227619Y-65121881D01*
X54703810Y-65550452D02*
X54799048Y-65502833D01*
X54846667Y-65455214D01*
X54894286Y-65359976D01*
X54894286Y-65312357D01*
X54846667Y-65217119D01*
X54799048Y-65169500D01*
X54703810Y-65121881D01*
X54513333Y-65121881D01*
X54418095Y-65169500D01*
X54370476Y-65217119D01*
X54322857Y-65312357D01*
X54322857Y-65359976D01*
X54370476Y-65455214D01*
X54418095Y-65502833D01*
X54513333Y-65550452D01*
X54703810Y-65550452D01*
X54799048Y-65598071D01*
X54846667Y-65645690D01*
X54894286Y-65740929D01*
X54894286Y-65931405D01*
X54846667Y-66026643D01*
X54799048Y-66074262D01*
X54703810Y-66121881D01*
X54513333Y-66121881D01*
X54418095Y-66074262D01*
X54370476Y-66026643D01*
X54322857Y-65931405D01*
X54322857Y-65740929D01*
X54370476Y-65645690D01*
X54418095Y-65598071D01*
X54513333Y-65550452D01*
X65084762Y-66411881D02*
X64846667Y-67411881D01*
X64656190Y-66697595D01*
X64465714Y-67411881D01*
X64227619Y-66411881D01*
X63799048Y-67411881D02*
X63608572Y-67411881D01*
X63513333Y-67364262D01*
X63465714Y-67316643D01*
X63370476Y-67173786D01*
X63322857Y-66983310D01*
X63322857Y-66602357D01*
X63370476Y-66507119D01*
X63418095Y-66459500D01*
X63513333Y-66411881D01*
X63703810Y-66411881D01*
X63799048Y-66459500D01*
X63846667Y-66507119D01*
X63894286Y-66602357D01*
X63894286Y-66840452D01*
X63846667Y-66935690D01*
X63799048Y-66983310D01*
X63703810Y-67030929D01*
X63513333Y-67030929D01*
X63418095Y-66983310D01*
X63370476Y-66935690D01*
X63322857Y-66840452D01*
M02*
