G04 #@! TF.FileFunction,Soldermask,Top*
%FSLAX46Y46*%
G04 Gerber Fmt 4.6, Leading zero omitted, Abs format (unit mm)*
G04 Created by KiCad (PCBNEW (2015-12-18 BZR 6383, Git 02d9bbb)-product) date Sun 17 Jan 2016 02:01:38 PM EET*
%MOMM*%
G01*
G04 APERTURE LIST*
%ADD10C,0.100000*%
%ADD11R,1.150000X1.200000*%
%ADD12R,1.400000X1.650000*%
%ADD13R,1.197560X1.197560*%
%ADD14R,0.850000X0.990000*%
%ADD15R,2.100000X1.300000*%
%ADD16R,0.900000X1.300000*%
%ADD17R,1.300000X0.900000*%
%ADD18O,2.800000X1.500000*%
%ADD19R,1.500000X2.800000*%
%ADD20O,1.500000X2.800000*%
%ADD21R,4.057600X2.432000*%
%ADD22R,1.416000X2.432000*%
%ADD23R,1.100000X2.200000*%
%ADD24R,2.000000X2.600000*%
%ADD25R,2.432000X2.127200*%
%ADD26O,2.432000X2.127200*%
%ADD27R,1.300000X2.100000*%
G04 APERTURE END LIST*
D10*
D11*
X61849000Y-79934500D03*
X61849000Y-78434500D03*
D12*
X69680000Y-74419500D03*
X67680000Y-74419500D03*
X63897000Y-74419500D03*
X65897000Y-74419500D03*
D13*
X59423300Y-83629500D03*
X57924700Y-83629500D03*
X56248300Y-83629500D03*
X54749700Y-83629500D03*
D14*
X71430000Y-79604500D03*
X71430000Y-77494500D03*
D15*
X71430000Y-83809500D03*
X71430000Y-80909500D03*
D16*
X59424000Y-81978500D03*
X57924000Y-81978500D03*
X49899000Y-81978500D03*
X48399000Y-81978500D03*
X45224000Y-81978500D03*
X46724000Y-81978500D03*
X56249000Y-81919500D03*
X54749000Y-81919500D03*
D17*
X71430000Y-74624500D03*
X71430000Y-76124500D03*
X71430000Y-71919500D03*
X71430000Y-73419500D03*
D16*
X72680000Y-69919500D03*
X74180000Y-69919500D03*
X72680000Y-67669500D03*
X74180000Y-67669500D03*
X68930000Y-69169500D03*
X70430000Y-69169500D03*
D18*
X60875201Y-76729500D03*
X60875201Y-74729500D03*
X60875201Y-72729500D03*
X60875201Y-70729500D03*
X60875201Y-68729500D03*
X60875201Y-66729500D03*
D19*
X45125201Y-79719500D03*
D20*
X47125201Y-79719500D03*
X49125201Y-79719500D03*
X51125201Y-79719500D03*
X53125201Y-79719500D03*
X55125201Y-79719500D03*
X57125201Y-79719500D03*
X59125201Y-79719500D03*
X59125201Y-63719500D03*
X57125201Y-63719500D03*
X55125201Y-63719500D03*
X53125201Y-63719500D03*
X51125201Y-63719500D03*
X49125201Y-63719500D03*
X47125201Y-63719500D03*
X45125201Y-63719500D03*
D21*
X66430000Y-83471500D03*
D22*
X66430000Y-76867500D03*
X64144000Y-76867500D03*
X68716000Y-76867500D03*
D23*
X64324000Y-67069500D03*
X65574000Y-67069500D03*
X66824000Y-67069500D03*
X68074000Y-67069500D03*
X69324000Y-67069500D03*
X70574000Y-67069500D03*
D24*
X62074000Y-63769500D03*
X72824000Y-63769500D03*
D14*
X75930000Y-70224500D03*
X75930000Y-68114500D03*
X75930000Y-66224500D03*
X75930000Y-64114500D03*
D25*
X74680000Y-82959500D03*
D26*
X74680000Y-80419500D03*
X74680000Y-77879500D03*
X74680000Y-75339500D03*
D16*
X66180000Y-69169500D03*
X67680000Y-69169500D03*
X63430000Y-69169500D03*
X64930000Y-69169500D03*
D27*
X64880000Y-71669500D03*
X68980000Y-71669500D03*
M02*
