M48
;DRILL file {KiCad (2015-11-11 BZR 6309, Git 34f1c0e)-product} date Sun 06 Dec 2015 02:47:08 PM EET
;FORMAT={-:-/ absolute / inch / decimal}
FMAT,2
INCH,TZ
T1C0.016
T2C0.040
%
G90
G05
M72
T1
X1.825Y-2.5925
X1.885Y-3.0325
X1.925Y-3.0525
X2.015Y-2.4225
X2.125Y-2.4125
X2.135Y-2.5725
X2.305Y-3.0725
X2.39Y-3.2175
X2.48Y-3.0325
X2.49Y-2.7225
X2.535Y-2.6925
X2.625Y-2.5225
X2.665Y-2.7025
X2.685Y-2.7525
X2.715Y-2.6725
X2.805Y-3.0125
X2.815Y-2.9225
X2.9Y-2.7575
T2
X2.985Y-2.5175
X2.985Y-2.6175
X2.985Y-2.7675
X2.985Y-2.8675
X2.985Y-2.9675
X2.985Y-3.0675
X2.985Y-3.1675
X2.985Y-3.2675
T0
M30
