G04 #@! TF.FileFunction,Legend,Top*
%FSLAX46Y46*%
G04 Gerber Fmt 4.6, Leading zero omitted, Abs format (unit mm)*
G04 Created by KiCad (PCBNEW (2015-12-18 BZR 6383, Git 02d9bbb)-product) date Sun 17 Jan 2016 02:01:38 PM EET*
%MOMM*%
G01*
G04 APERTURE LIST*
%ADD10C,0.100000*%
%ADD11C,0.150000*%
%ADD12C,0.125000*%
%ADD13C,0.031750*%
G04 APERTURE END LIST*
D10*
D11*
X61249000Y-79534500D02*
X61249000Y-78834500D01*
X62449000Y-78834500D02*
X62449000Y-79534500D01*
X68180000Y-75269500D02*
X69180000Y-75269500D01*
X69180000Y-73569500D02*
X68180000Y-73569500D01*
X65397000Y-73569500D02*
X64397000Y-73569500D01*
X64397000Y-75269500D02*
X65397000Y-75269500D01*
X57574000Y-84179500D02*
X59474000Y-84179500D01*
X57574000Y-83079500D02*
X59474000Y-83079500D01*
X58474000Y-83629500D02*
X58924000Y-83629500D01*
X58424000Y-83379500D02*
X58424000Y-83879500D01*
X58424000Y-83629500D02*
X58674000Y-83379500D01*
X58674000Y-83379500D02*
X58674000Y-83879500D01*
X58674000Y-83879500D02*
X58424000Y-83629500D01*
X54399000Y-84179500D02*
X56299000Y-84179500D01*
X54399000Y-83079500D02*
X56299000Y-83079500D01*
X55299000Y-83629500D02*
X55749000Y-83629500D01*
X55249000Y-83379500D02*
X55249000Y-83879500D01*
X55249000Y-83629500D02*
X55499000Y-83379500D01*
X55499000Y-83379500D02*
X55499000Y-83879500D01*
X55499000Y-83879500D02*
X55249000Y-83629500D01*
X71430000Y-78299500D02*
X71430000Y-78049500D01*
X71430000Y-78799500D02*
X71430000Y-79049500D01*
X71430000Y-78799500D02*
X71080000Y-78299500D01*
X71080000Y-78299500D02*
X71780000Y-78299500D01*
X71780000Y-78299500D02*
X71430000Y-78799500D01*
X71080000Y-78799500D02*
X71780000Y-78799500D01*
X72230000Y-79849500D02*
X72230000Y-77449500D01*
X70630000Y-79849500D02*
X70630000Y-77449500D01*
X72505000Y-81359500D02*
X72505000Y-83359500D01*
X70355000Y-83359500D02*
X70355000Y-81359500D01*
X58174000Y-81303500D02*
X59174000Y-81303500D01*
X59174000Y-82653500D02*
X58174000Y-82653500D01*
X48649000Y-81303500D02*
X49649000Y-81303500D01*
X49649000Y-82653500D02*
X48649000Y-82653500D01*
X46474000Y-82653500D02*
X45474000Y-82653500D01*
X45474000Y-81303500D02*
X46474000Y-81303500D01*
X54999000Y-81244500D02*
X55999000Y-81244500D01*
X55999000Y-82594500D02*
X54999000Y-82594500D01*
X70755000Y-75874500D02*
X70755000Y-74874500D01*
X72105000Y-74874500D02*
X72105000Y-75874500D01*
X70755000Y-73169500D02*
X70755000Y-72169500D01*
X72105000Y-72169500D02*
X72105000Y-73169500D01*
X73930000Y-70594500D02*
X72930000Y-70594500D01*
X72930000Y-69244500D02*
X73930000Y-69244500D01*
X73930000Y-68344500D02*
X72930000Y-68344500D01*
X72930000Y-66994500D02*
X73930000Y-66994500D01*
X70180000Y-69844500D02*
X69180000Y-69844500D01*
X69180000Y-68494500D02*
X70180000Y-68494500D01*
X69986000Y-78645500D02*
X69986000Y-75597500D01*
X69986000Y-75597500D02*
X62874000Y-75597500D01*
X62874000Y-75597500D02*
X62874000Y-78645500D01*
X69986000Y-81693500D02*
X69986000Y-82455500D01*
X69986000Y-82455500D02*
X68462000Y-84741500D01*
X68462000Y-84741500D02*
X64398000Y-84741500D01*
X64398000Y-84741500D02*
X62874000Y-82455500D01*
X62874000Y-82455500D02*
X62874000Y-81693500D01*
X71949000Y-62669500D02*
X71949000Y-61569500D01*
X71949000Y-61569500D02*
X62949000Y-61569500D01*
X62949000Y-61569500D02*
X62949000Y-62669500D01*
X62949000Y-64969500D02*
X62949000Y-66069500D01*
X63049000Y-66069500D02*
X71949000Y-66069500D01*
X71949000Y-66069500D02*
X71949000Y-64969500D01*
X75930000Y-68919500D02*
X75930000Y-68669500D01*
X75930000Y-69419500D02*
X75930000Y-69669500D01*
X75930000Y-69419500D02*
X75580000Y-68919500D01*
X75580000Y-68919500D02*
X76280000Y-68919500D01*
X76280000Y-68919500D02*
X75930000Y-69419500D01*
X75580000Y-69419500D02*
X76280000Y-69419500D01*
X76730000Y-70469500D02*
X76730000Y-68069500D01*
X75130000Y-70469500D02*
X75130000Y-68069500D01*
X75930000Y-64919500D02*
X75930000Y-64669500D01*
X75930000Y-65419500D02*
X75930000Y-65669500D01*
X75930000Y-65419500D02*
X75580000Y-64919500D01*
X75580000Y-64919500D02*
X76280000Y-64919500D01*
X76280000Y-64919500D02*
X75930000Y-65419500D01*
X75580000Y-65419500D02*
X76280000Y-65419500D01*
X76730000Y-66469500D02*
X76730000Y-64069500D01*
X75130000Y-66469500D02*
X75130000Y-64069500D01*
X75950000Y-81689500D02*
X75950000Y-74069500D01*
X73410000Y-81689500D02*
X73410000Y-74069500D01*
X73130000Y-84509500D02*
X73130000Y-82959500D01*
X75950000Y-74069500D02*
X73410000Y-74069500D01*
X73410000Y-81689500D02*
X75950000Y-81689500D01*
X76230000Y-82959500D02*
X76230000Y-84509500D01*
X76230000Y-84509500D02*
X73130000Y-84509500D01*
X67430000Y-69844500D02*
X66430000Y-69844500D01*
X66430000Y-68494500D02*
X67430000Y-68494500D01*
X64680000Y-69844500D02*
X63680000Y-69844500D01*
X63680000Y-68494500D02*
X64680000Y-68494500D01*
X67890469Y-71669500D02*
G75*
G03X67890469Y-71669500I-960469J0D01*
G01*
X64730000Y-73119500D02*
X64730000Y-72569500D01*
X69130000Y-73119500D02*
X64730000Y-73119500D01*
X69130000Y-72519500D02*
X69130000Y-73119500D01*
X69130000Y-70219500D02*
X69130000Y-70769500D01*
X64730000Y-70219500D02*
X69130000Y-70219500D01*
X64730000Y-70819500D02*
X64730000Y-70219500D01*
D12*
X61615667Y-81598071D02*
X61591857Y-81621881D01*
X61520429Y-81645690D01*
X61472810Y-81645690D01*
X61401381Y-81621881D01*
X61353762Y-81574262D01*
X61329953Y-81526643D01*
X61306143Y-81431405D01*
X61306143Y-81359976D01*
X61329953Y-81264738D01*
X61353762Y-81217119D01*
X61401381Y-81169500D01*
X61472810Y-81145690D01*
X61520429Y-81145690D01*
X61591857Y-81169500D01*
X61615667Y-81193310D01*
X61806143Y-81193310D02*
X61829953Y-81169500D01*
X61877572Y-81145690D01*
X61996619Y-81145690D01*
X62044238Y-81169500D01*
X62068048Y-81193310D01*
X62091857Y-81240929D01*
X62091857Y-81288548D01*
X62068048Y-81359976D01*
X61782334Y-81645690D01*
X62091857Y-81645690D01*
X69846667Y-73098071D02*
X69822857Y-73121881D01*
X69751429Y-73145690D01*
X69703810Y-73145690D01*
X69632381Y-73121881D01*
X69584762Y-73074262D01*
X69560953Y-73026643D01*
X69537143Y-72931405D01*
X69537143Y-72859976D01*
X69560953Y-72764738D01*
X69584762Y-72717119D01*
X69632381Y-72669500D01*
X69703810Y-72645690D01*
X69751429Y-72645690D01*
X69822857Y-72669500D01*
X69846667Y-72693310D01*
X70013334Y-72645690D02*
X70322857Y-72645690D01*
X70156191Y-72836167D01*
X70227619Y-72836167D01*
X70275238Y-72859976D01*
X70299048Y-72883786D01*
X70322857Y-72931405D01*
X70322857Y-73050452D01*
X70299048Y-73098071D01*
X70275238Y-73121881D01*
X70227619Y-73145690D01*
X70084762Y-73145690D01*
X70037143Y-73121881D01*
X70013334Y-73098071D01*
X63596667Y-73098071D02*
X63572857Y-73121881D01*
X63501429Y-73145690D01*
X63453810Y-73145690D01*
X63382381Y-73121881D01*
X63334762Y-73074262D01*
X63310953Y-73026643D01*
X63287143Y-72931405D01*
X63287143Y-72859976D01*
X63310953Y-72764738D01*
X63334762Y-72717119D01*
X63382381Y-72669500D01*
X63453810Y-72645690D01*
X63501429Y-72645690D01*
X63572857Y-72669500D01*
X63596667Y-72693310D01*
X64025238Y-72812357D02*
X64025238Y-73145690D01*
X63906191Y-72621881D02*
X63787143Y-72979024D01*
X64096667Y-72979024D01*
D11*
X57941905Y-78371881D02*
X57941905Y-77371881D01*
X58180000Y-77371881D01*
X58322858Y-77419500D01*
X58418096Y-77514738D01*
X58465715Y-77609976D01*
X58513334Y-77800452D01*
X58513334Y-77943310D01*
X58465715Y-78133786D01*
X58418096Y-78229024D01*
X58322858Y-78324262D01*
X58180000Y-78371881D01*
X57941905Y-78371881D01*
X58846667Y-77371881D02*
X59465715Y-77371881D01*
X59132381Y-77752833D01*
X59275239Y-77752833D01*
X59370477Y-77800452D01*
X59418096Y-77848071D01*
X59465715Y-77943310D01*
X59465715Y-78181405D01*
X59418096Y-78276643D01*
X59370477Y-78324262D01*
X59275239Y-78371881D01*
X58989524Y-78371881D01*
X58894286Y-78324262D01*
X58846667Y-78276643D01*
X60563334Y-83246167D02*
X60563334Y-83812833D01*
X60596667Y-83879500D01*
X60630000Y-83912833D01*
X60696667Y-83946167D01*
X60830000Y-83946167D01*
X60896667Y-83912833D01*
X60930000Y-83879500D01*
X60963334Y-83812833D01*
X60963334Y-83246167D01*
X61263333Y-83746167D02*
X61596667Y-83746167D01*
X61196667Y-83946167D02*
X61430000Y-83246167D01*
X61663333Y-83946167D01*
X62296667Y-83946167D02*
X62063333Y-83612833D01*
X61896667Y-83946167D02*
X61896667Y-83246167D01*
X62163333Y-83246167D01*
X62230000Y-83279500D01*
X62263333Y-83312833D01*
X62296667Y-83379500D01*
X62296667Y-83479500D01*
X62263333Y-83546167D01*
X62230000Y-83579500D01*
X62163333Y-83612833D01*
X61896667Y-83612833D01*
X62496667Y-83246167D02*
X62896667Y-83246167D01*
X62696667Y-83946167D02*
X62696667Y-83246167D01*
X54941905Y-78121881D02*
X54941905Y-77121881D01*
X55180000Y-77121881D01*
X55322858Y-77169500D01*
X55418096Y-77264738D01*
X55465715Y-77359976D01*
X55513334Y-77550452D01*
X55513334Y-77693310D01*
X55465715Y-77883786D01*
X55418096Y-77979024D01*
X55322858Y-78074262D01*
X55180000Y-78121881D01*
X54941905Y-78121881D01*
X56370477Y-77455214D02*
X56370477Y-78121881D01*
X56132381Y-77074262D02*
X55894286Y-77788548D01*
X56513334Y-77788548D01*
X52146668Y-83986167D02*
X52146668Y-83286167D01*
X52546668Y-83986167D01*
X52546668Y-83286167D01*
X52880001Y-83619500D02*
X53113334Y-83619500D01*
X53213334Y-83986167D02*
X52880001Y-83986167D01*
X52880001Y-83286167D01*
X53213334Y-83286167D01*
X53413334Y-83286167D02*
X53813334Y-83286167D01*
X53613334Y-83986167D02*
X53613334Y-83286167D01*
D12*
X73156190Y-78768547D02*
X72656190Y-78768547D01*
X72656190Y-78649500D01*
X72680000Y-78578071D01*
X72727619Y-78530452D01*
X72775238Y-78506643D01*
X72870476Y-78482833D01*
X72941905Y-78482833D01*
X73037143Y-78506643D01*
X73084762Y-78530452D01*
X73132381Y-78578071D01*
X73156190Y-78649500D01*
X73156190Y-78768547D01*
X72656190Y-78054262D02*
X72656190Y-78149500D01*
X72680000Y-78197119D01*
X72703810Y-78220928D01*
X72775238Y-78268547D01*
X72870476Y-78292357D01*
X73060952Y-78292357D01*
X73108571Y-78268547D01*
X73132381Y-78244738D01*
X73156190Y-78197119D01*
X73156190Y-78101881D01*
X73132381Y-78054262D01*
X73108571Y-78030452D01*
X73060952Y-78006643D01*
X72941905Y-78006643D01*
X72894286Y-78030452D01*
X72870476Y-78054262D01*
X72846667Y-78101881D01*
X72846667Y-78197119D01*
X72870476Y-78244738D01*
X72894286Y-78268547D01*
X72941905Y-78292357D01*
X69644286Y-84066166D02*
X69644286Y-84232832D01*
X69906190Y-84232832D02*
X69406190Y-84232832D01*
X69406190Y-83994737D01*
X69906190Y-83542357D02*
X69906190Y-83828071D01*
X69906190Y-83685214D02*
X69406190Y-83685214D01*
X69477619Y-83732833D01*
X69525238Y-83780452D01*
X69549048Y-83828071D01*
D11*
X58513334Y-76371881D02*
X58180000Y-75895690D01*
X57941905Y-76371881D02*
X57941905Y-75371881D01*
X58322858Y-75371881D01*
X58418096Y-75419500D01*
X58465715Y-75467119D01*
X58513334Y-75562357D01*
X58513334Y-75705214D01*
X58465715Y-75800452D01*
X58418096Y-75848071D01*
X58322858Y-75895690D01*
X57941905Y-75895690D01*
X59465715Y-76371881D02*
X58894286Y-76371881D01*
X59180000Y-76371881D02*
X59180000Y-75371881D01*
X59084762Y-75514738D01*
X58989524Y-75609976D01*
X58894286Y-75657595D01*
D12*
X49065667Y-83645690D02*
X48899000Y-83407595D01*
X48779953Y-83645690D02*
X48779953Y-83145690D01*
X48970429Y-83145690D01*
X49018048Y-83169500D01*
X49041857Y-83193310D01*
X49065667Y-83240929D01*
X49065667Y-83312357D01*
X49041857Y-83359976D01*
X49018048Y-83383786D01*
X48970429Y-83407595D01*
X48779953Y-83407595D01*
X49256143Y-83193310D02*
X49279953Y-83169500D01*
X49327572Y-83145690D01*
X49446619Y-83145690D01*
X49494238Y-83169500D01*
X49518048Y-83193310D01*
X49541857Y-83240929D01*
X49541857Y-83288548D01*
X49518048Y-83359976D01*
X49232334Y-83645690D01*
X49541857Y-83645690D01*
X45846667Y-83645690D02*
X45680000Y-83407595D01*
X45560953Y-83645690D02*
X45560953Y-83145690D01*
X45751429Y-83145690D01*
X45799048Y-83169500D01*
X45822857Y-83193310D01*
X45846667Y-83240929D01*
X45846667Y-83312357D01*
X45822857Y-83359976D01*
X45799048Y-83383786D01*
X45751429Y-83407595D01*
X45560953Y-83407595D01*
X46013334Y-83145690D02*
X46322857Y-83145690D01*
X46156191Y-83336167D01*
X46227619Y-83336167D01*
X46275238Y-83359976D01*
X46299048Y-83383786D01*
X46322857Y-83431405D01*
X46322857Y-83550452D01*
X46299048Y-83598071D01*
X46275238Y-83621881D01*
X46227619Y-83645690D01*
X46084762Y-83645690D01*
X46037143Y-83621881D01*
X46013334Y-83598071D01*
D11*
X55513334Y-76371881D02*
X55180000Y-75895690D01*
X54941905Y-76371881D02*
X54941905Y-75371881D01*
X55322858Y-75371881D01*
X55418096Y-75419500D01*
X55465715Y-75467119D01*
X55513334Y-75562357D01*
X55513334Y-75705214D01*
X55465715Y-75800452D01*
X55418096Y-75848071D01*
X55322858Y-75895690D01*
X54941905Y-75895690D01*
X56370477Y-75705214D02*
X56370477Y-76371881D01*
X56132381Y-75324262D02*
X55894286Y-76038548D01*
X56513334Y-76038548D01*
D12*
X72906190Y-75482833D02*
X72668095Y-75649500D01*
X72906190Y-75768547D02*
X72406190Y-75768547D01*
X72406190Y-75578071D01*
X72430000Y-75530452D01*
X72453810Y-75506643D01*
X72501429Y-75482833D01*
X72572857Y-75482833D01*
X72620476Y-75506643D01*
X72644286Y-75530452D01*
X72668095Y-75578071D01*
X72668095Y-75768547D01*
X72406190Y-75030452D02*
X72406190Y-75268547D01*
X72644286Y-75292357D01*
X72620476Y-75268547D01*
X72596667Y-75220928D01*
X72596667Y-75101881D01*
X72620476Y-75054262D01*
X72644286Y-75030452D01*
X72691905Y-75006643D01*
X72810952Y-75006643D01*
X72858571Y-75030452D01*
X72882381Y-75054262D01*
X72906190Y-75101881D01*
X72906190Y-75220928D01*
X72882381Y-75268547D01*
X72858571Y-75292357D01*
X72846667Y-72895690D02*
X72680000Y-72657595D01*
X72560953Y-72895690D02*
X72560953Y-72395690D01*
X72751429Y-72395690D01*
X72799048Y-72419500D01*
X72822857Y-72443310D01*
X72846667Y-72490929D01*
X72846667Y-72562357D01*
X72822857Y-72609976D01*
X72799048Y-72633786D01*
X72751429Y-72657595D01*
X72560953Y-72657595D01*
X73275238Y-72395690D02*
X73180000Y-72395690D01*
X73132381Y-72419500D01*
X73108572Y-72443310D01*
X73060953Y-72514738D01*
X73037143Y-72609976D01*
X73037143Y-72800452D01*
X73060953Y-72848071D01*
X73084762Y-72871881D01*
X73132381Y-72895690D01*
X73227619Y-72895690D01*
X73275238Y-72871881D01*
X73299048Y-72848071D01*
X73322857Y-72800452D01*
X73322857Y-72681405D01*
X73299048Y-72633786D01*
X73275238Y-72609976D01*
X73227619Y-72586167D01*
X73132381Y-72586167D01*
X73084762Y-72609976D01*
X73060953Y-72633786D01*
X73037143Y-72681405D01*
X74096667Y-71395690D02*
X73930000Y-71157595D01*
X73810953Y-71395690D02*
X73810953Y-70895690D01*
X74001429Y-70895690D01*
X74049048Y-70919500D01*
X74072857Y-70943310D01*
X74096667Y-70990929D01*
X74096667Y-71062357D01*
X74072857Y-71109976D01*
X74049048Y-71133786D01*
X74001429Y-71157595D01*
X73810953Y-71157595D01*
X74263334Y-70895690D02*
X74596667Y-70895690D01*
X74382381Y-71395690D01*
D13*
X73346667Y-66645690D02*
X73180000Y-66407595D01*
X73060953Y-66645690D02*
X73060953Y-66145690D01*
X73251429Y-66145690D01*
X73299048Y-66169500D01*
X73322857Y-66193310D01*
X73346667Y-66240929D01*
X73346667Y-66312357D01*
X73322857Y-66359976D01*
X73299048Y-66383786D01*
X73251429Y-66407595D01*
X73060953Y-66407595D01*
X73632381Y-66359976D02*
X73584762Y-66336167D01*
X73560953Y-66312357D01*
X73537143Y-66264738D01*
X73537143Y-66240929D01*
X73560953Y-66193310D01*
X73584762Y-66169500D01*
X73632381Y-66145690D01*
X73727619Y-66145690D01*
X73775238Y-66169500D01*
X73799048Y-66193310D01*
X73822857Y-66240929D01*
X73822857Y-66264738D01*
X73799048Y-66312357D01*
X73775238Y-66336167D01*
X73727619Y-66359976D01*
X73632381Y-66359976D01*
X73584762Y-66383786D01*
X73560953Y-66407595D01*
X73537143Y-66455214D01*
X73537143Y-66550452D01*
X73560953Y-66598071D01*
X73584762Y-66621881D01*
X73632381Y-66645690D01*
X73727619Y-66645690D01*
X73775238Y-66621881D01*
X73799048Y-66598071D01*
X73822857Y-66550452D01*
X73822857Y-66455214D01*
X73799048Y-66407595D01*
X73775238Y-66383786D01*
X73727619Y-66359976D01*
D12*
X71656190Y-69252833D02*
X71418095Y-69419500D01*
X71656190Y-69538547D02*
X71156190Y-69538547D01*
X71156190Y-69348071D01*
X71180000Y-69300452D01*
X71203810Y-69276643D01*
X71251429Y-69252833D01*
X71322857Y-69252833D01*
X71370476Y-69276643D01*
X71394286Y-69300452D01*
X71418095Y-69348071D01*
X71418095Y-69538547D01*
X71656190Y-69014738D02*
X71656190Y-68919500D01*
X71632381Y-68871881D01*
X71608571Y-68848071D01*
X71537143Y-68800452D01*
X71441905Y-68776643D01*
X71251429Y-68776643D01*
X71203810Y-68800452D01*
X71180000Y-68824262D01*
X71156190Y-68871881D01*
X71156190Y-68967119D01*
X71180000Y-69014738D01*
X71203810Y-69038547D01*
X71251429Y-69062357D01*
X71370476Y-69062357D01*
X71418095Y-69038547D01*
X71441905Y-69014738D01*
X71465714Y-68967119D01*
X71465714Y-68871881D01*
X71441905Y-68824262D01*
X71418095Y-68800452D01*
X71370476Y-68776643D01*
D11*
X43651381Y-72661405D02*
X44460905Y-72661405D01*
X44556143Y-72613786D01*
X44603762Y-72566167D01*
X44651381Y-72470929D01*
X44651381Y-72280452D01*
X44603762Y-72185214D01*
X44556143Y-72137595D01*
X44460905Y-72089976D01*
X43651381Y-72089976D01*
X44651381Y-71089976D02*
X44651381Y-71661405D01*
X44651381Y-71375691D02*
X43651381Y-71375691D01*
X43794238Y-71470929D01*
X43889476Y-71566167D01*
X43937095Y-71661405D01*
X65668095Y-80383881D02*
X65668095Y-81193405D01*
X65715714Y-81288643D01*
X65763333Y-81336262D01*
X65858571Y-81383881D01*
X66049048Y-81383881D01*
X66144286Y-81336262D01*
X66191905Y-81288643D01*
X66239524Y-81193405D01*
X66239524Y-80383881D01*
X66668095Y-80479119D02*
X66715714Y-80431500D01*
X66810952Y-80383881D01*
X67049048Y-80383881D01*
X67144286Y-80431500D01*
X67191905Y-80479119D01*
X67239524Y-80574357D01*
X67239524Y-80669595D01*
X67191905Y-80812452D01*
X66620476Y-81383881D01*
X67239524Y-81383881D01*
X66691905Y-63621881D02*
X66691905Y-62621881D01*
X67072858Y-62621881D01*
X67168096Y-62669500D01*
X67215715Y-62717119D01*
X67263334Y-62812357D01*
X67263334Y-62955214D01*
X67215715Y-63050452D01*
X67168096Y-63098071D01*
X67072858Y-63145690D01*
X66691905Y-63145690D01*
X68215715Y-63621881D02*
X67644286Y-63621881D01*
X67930000Y-63621881D02*
X67930000Y-62621881D01*
X67834762Y-62764738D01*
X67739524Y-62859976D01*
X67644286Y-62907595D01*
X73965714Y-63371881D02*
X73965714Y-62371881D01*
X74346667Y-62371881D01*
X74441905Y-62419500D01*
X74489524Y-62467119D01*
X74537143Y-62562357D01*
X74537143Y-62705214D01*
X74489524Y-62800452D01*
X74441905Y-62848071D01*
X74346667Y-62895690D01*
X73965714Y-62895690D01*
X74870476Y-62371881D02*
X75537143Y-63371881D01*
X75537143Y-62371881D02*
X74870476Y-63371881D01*
X76346667Y-62705214D02*
X76346667Y-63371881D01*
X76108571Y-62324262D02*
X75870476Y-63038548D01*
X76489524Y-63038548D01*
D12*
X75560953Y-71395690D02*
X75560953Y-70895690D01*
X75680000Y-70895690D01*
X75751429Y-70919500D01*
X75799048Y-70967119D01*
X75822857Y-71014738D01*
X75846667Y-71109976D01*
X75846667Y-71181405D01*
X75822857Y-71276643D01*
X75799048Y-71324262D01*
X75751429Y-71371881D01*
X75680000Y-71395690D01*
X75560953Y-71395690D01*
X76322857Y-71395690D02*
X76037143Y-71395690D01*
X76180000Y-71395690D02*
X76180000Y-70895690D01*
X76132381Y-70967119D01*
X76084762Y-71014738D01*
X76037143Y-71038548D01*
X74656190Y-65288547D02*
X74156190Y-65288547D01*
X74156190Y-65169500D01*
X74180000Y-65098071D01*
X74227619Y-65050452D01*
X74275238Y-65026643D01*
X74370476Y-65002833D01*
X74441905Y-65002833D01*
X74537143Y-65026643D01*
X74584762Y-65050452D01*
X74632381Y-65098071D01*
X74656190Y-65169500D01*
X74656190Y-65288547D01*
X74203810Y-64812357D02*
X74180000Y-64788547D01*
X74156190Y-64740928D01*
X74156190Y-64621881D01*
X74180000Y-64574262D01*
X74203810Y-64550452D01*
X74251429Y-64526643D01*
X74299048Y-64526643D01*
X74370476Y-64550452D01*
X74656190Y-64836166D01*
X74656190Y-64526643D01*
D11*
X74191905Y-73371881D02*
X74191905Y-72371881D01*
X74572858Y-72371881D01*
X74668096Y-72419500D01*
X74715715Y-72467119D01*
X74763334Y-72562357D01*
X74763334Y-72705214D01*
X74715715Y-72800452D01*
X74668096Y-72848071D01*
X74572858Y-72895690D01*
X74191905Y-72895690D01*
X75144286Y-72467119D02*
X75191905Y-72419500D01*
X75287143Y-72371881D01*
X75525239Y-72371881D01*
X75620477Y-72419500D01*
X75668096Y-72467119D01*
X75715715Y-72562357D01*
X75715715Y-72657595D01*
X75668096Y-72800452D01*
X75096667Y-73371881D01*
X75715715Y-73371881D01*
D12*
X62858572Y-70645690D02*
X62691905Y-70407595D01*
X62572858Y-70645690D02*
X62572858Y-70145690D01*
X62763334Y-70145690D01*
X62810953Y-70169500D01*
X62834762Y-70193310D01*
X62858572Y-70240929D01*
X62858572Y-70312357D01*
X62834762Y-70359976D01*
X62810953Y-70383786D01*
X62763334Y-70407595D01*
X62572858Y-70407595D01*
X63334762Y-70645690D02*
X63049048Y-70645690D01*
X63191905Y-70645690D02*
X63191905Y-70145690D01*
X63144286Y-70217119D01*
X63096667Y-70264738D01*
X63049048Y-70288548D01*
X63644286Y-70145690D02*
X63691905Y-70145690D01*
X63739524Y-70169500D01*
X63763333Y-70193310D01*
X63787143Y-70240929D01*
X63810952Y-70336167D01*
X63810952Y-70455214D01*
X63787143Y-70550452D01*
X63763333Y-70598071D01*
X63739524Y-70621881D01*
X63691905Y-70645690D01*
X63644286Y-70645690D01*
X63596667Y-70621881D01*
X63572857Y-70598071D01*
X63549048Y-70550452D01*
X63525238Y-70455214D01*
X63525238Y-70336167D01*
X63549048Y-70240929D01*
X63572857Y-70193310D01*
X63596667Y-70169500D01*
X63644286Y-70145690D01*
X62608572Y-68145690D02*
X62441905Y-67907595D01*
X62322858Y-68145690D02*
X62322858Y-67645690D01*
X62513334Y-67645690D01*
X62560953Y-67669500D01*
X62584762Y-67693310D01*
X62608572Y-67740929D01*
X62608572Y-67812357D01*
X62584762Y-67859976D01*
X62560953Y-67883786D01*
X62513334Y-67907595D01*
X62322858Y-67907595D01*
X63084762Y-68145690D02*
X62799048Y-68145690D01*
X62941905Y-68145690D02*
X62941905Y-67645690D01*
X62894286Y-67717119D01*
X62846667Y-67764738D01*
X62799048Y-67788548D01*
X63560952Y-68145690D02*
X63275238Y-68145690D01*
X63418095Y-68145690D02*
X63418095Y-67645690D01*
X63370476Y-67717119D01*
X63322857Y-67764738D01*
X63275238Y-67788548D01*
D11*
X69596667Y-71074262D02*
X69739524Y-71121881D01*
X69977620Y-71121881D01*
X70072858Y-71074262D01*
X70120477Y-71026643D01*
X70168096Y-70931405D01*
X70168096Y-70836167D01*
X70120477Y-70740929D01*
X70072858Y-70693310D01*
X69977620Y-70645690D01*
X69787143Y-70598071D01*
X69691905Y-70550452D01*
X69644286Y-70502833D01*
X69596667Y-70407595D01*
X69596667Y-70312357D01*
X69644286Y-70217119D01*
X69691905Y-70169500D01*
X69787143Y-70121881D01*
X70025239Y-70121881D01*
X70168096Y-70169500D01*
X70501429Y-70121881D02*
X70739524Y-71121881D01*
X70930001Y-70407595D01*
X71120477Y-71121881D01*
X71358572Y-70121881D01*
X72263334Y-71121881D02*
X71691905Y-71121881D01*
X71977619Y-71121881D02*
X71977619Y-70121881D01*
X71882381Y-70264738D01*
X71787143Y-70359976D01*
X71691905Y-70407595D01*
M02*
