  0
SECTION
  2
HEADER
  9
$ACADVER
  1
AC1014
  9
$HANDSEED
  5
FFFF
  9
$MEASUREMENT
 70
     1
  0
ENDSEC
  0
SECTION
  2
TABLES
  0
TABLE
  2
VPORT
  5
8
330
0
100
AcDbSymbolTable
 70
     4
  0
VPORT
  5
2E
330
8
100
AcDbSymbolTableRecord
100
AcDbViewportTableRecord
  2
*ACTIVE
 70
     0
 10
0.0
 20
0.0
 11
1.0
 21
1.0
 12
210.0
 22
148.5
 13
0.0
 23
0.0
 14
10.0
 24
10.0
 15
10.0
 25
10.0
 16
0.0
 26
0.0
 36
1.0
 17
0.0
 27
0.0
 37
0.0
 40
341.0
 41
1.24
 42
50.0
 43
0.0
 44
0.0
 50
0.0
 51
0.0
 71
     0
 72
   100
 73
     1
 74
     3
 75
     0
 76
     0
 77
     0
 78
     0
  0
ENDTAB
  0
TABLE
  2
LTYPE
  5
5
330
0
100
AcDbSymbolTable
 70
     1
  0
LTYPE
  5
14
330
5
100
AcDbSymbolTableRecord
100
AcDbLinetypeTableRecord
  2
BYBLOCK
 70
     0
  3

 72
    65
 73
     0
 40
0.0
  0
LTYPE
  5
15
330
5
100
AcDbSymbolTableRecord
100
AcDbLinetypeTableRecord
  2
BYLAYER
 70
     0
  3

 72
    65
 73
     0
 40
0.0
  0
LTYPE
  5
16
330
5
100
AcDbSymbolTableRecord
100
AcDbLinetypeTableRecord
  2
CONTINUOUS
 70
     0
  3
Solid line
 72
    65
 73
     0
 40
0.0
  0
ENDTAB
  0
TABLE
  2
LAYER
  5
2
100
AcDbSymbolTable
 70
1
  0
LAYER
  5
50
100
AcDbSymbolTableRecord
100
AcDbLayerTableRecord
  2
0
 70
0
  6
CONTINUOUS
  0
ENDTAB
  0
TABLE
  2
STYLE
  5
3
330
0
100
AcDbSymbolTable
 70
     1
  0
STYLE
  5
11
330
3
100
AcDbSymbolTableRecord
100
AcDbTextStyleTableRecord
  2
STANDARD
 70
     0
 40
0.0
 41
1.0
 50
0.0
 71
     0
 42
2.5
  3
txt
  4

  0
ENDTAB
  0
TABLE
  2
VIEW
  5
6
330
0
100
AcDbSymbolTable
 70
     0
  0
ENDTAB
  0
TABLE
  2
UCS
  5
7
330
0
100
AcDbSymbolTable
 70
     0
  0
ENDTAB
  0
TABLE
  2
APPID
  5
9
330
0
100
AcDbSymbolTable
 70
     2
  0
APPID
  5
12
330
9
100
AcDbSymbolTableRecord
100
AcDbRegAppTableRecord
  2
ACAD
 70
     0
  0
ENDTAB
  0
TABLE
  2
DIMSTYLE
  5
A
330
0
100
AcDbSymbolTable
 70
     1
  0
DIMSTYLE
105
27
330
A
100
AcDbSymbolTableRecord
100
AcDbDimStyleTableRecord
  2
ISO-25
 70
     0
  3

  4

  5

  6

  7

 40
1.0
 41
2.5
 42
0.625
 43
3.75
 44
1.25
 45
0.0
 46
0.0
 47
0.0
 48
0.0
140
2.5
141
2.5
142
0.0
143
0.03937007874016
144
1.0
145
0.0
146
1.0
147
0.625
 71
     0
 72
     0
 73
     0
 74
     0
 75
     0
 76
     0
 77
     1
 78
     8
170
     0
171
     3
172
     1
173
     0
174
     0
175
     0
176
     0
177
     0
178
     0
270
     2
271
     2
272
     2
273
     2
274
     3
340
11
275
     0
280
     0
281
     0
282
     0
283
     0
284
     8
285
     0
286
     0
287
     3
288
     0
  0
ENDTAB
  0
TABLE
  2
BLOCK_RECORD
  5
1
330
0
100
AcDbSymbolTable
 70
     1
  0
BLOCK_RECORD
  5
1F
330
1
100
AcDbSymbolTableRecord
100
AcDbBlockTableRecord
  2
*MODEL_SPACE
  0
BLOCK_RECORD
  5
1B
330
1
100
AcDbSymbolTableRecord
100
AcDbBlockTableRecord
  2
*PAPER_SPACE
  0
ENDTAB
  0
ENDSEC
  0
SECTION
  2
BLOCKS
  0
BLOCK
  5
20
330
1F
100
AcDbEntity
  8
0
100
AcDbBlockBegin
  2
*MODEL_SPACE
 70
     0
 10
0.0
 20
0.0
 30
0.0
  3
*MODEL_SPACE
  1

  0
ENDBLK
  5
21
330
1F
100
AcDbEntity
  8
0
100
AcDbBlockEnd
  0
BLOCK
  5
1C
330
1B
100
AcDbEntity
 67
     1
  8
0
100
AcDbBlockBegin
  2
*PAPER_SPACE
  1

  0
ENDBLK
  5
1D
330
1B
100
AcDbEntity
 67
     1
  8
0
100
AcDbBlockEnd
  0
ENDSEC
  0
SECTION
  2
ENTITIES
  0
LINE
  5
100
100
AcDbEntity
  8
0
 62
7
100
AcDbLine
 10
6.441502
 20
2.457318
 30
0.0
 11
7.082014
 21
2.457318
 31
0.0
  0
LINE
  5
101
100
AcDbEntity
  8
0
 62
7
100
AcDbLine
 10
7.082014
 20
2.457318
 30
0.0
 11
7.082014
 21
3.057040
 31
0.0
  0
LINE
  5
102
100
AcDbEntity
  8
0
 62
7
100
AcDbLine
 10
7.082014
 20
3.057040
 30
0.0
 11
6.441502
 21
3.057040
 31
0.0
  0
LINE
  5
103
100
AcDbEntity
  8
0
 62
7
100
AcDbLine
 10
6.441502
 20
3.057040
 30
0.0
 11
6.441502
 21
2.457318
 31
0.0
  0
LINE
  5
104
100
AcDbEntity
  8
0
 62
7
100
AcDbLine
 10
7.640946
 20
2.457318
 30
0.0
 11
8.281458
 21
2.457318
 31
0.0
  0
LINE
  5
105
100
AcDbEntity
  8
0
 62
7
100
AcDbLine
 10
8.281458
 20
2.457318
 30
0.0
 11
8.281458
 21
3.057040
 31
0.0
  0
LINE
  5
106
100
AcDbEntity
  8
0
 62
7
100
AcDbLine
 10
8.281458
 20
3.057040
 30
0.0
 11
7.640946
 21
3.057040
 31
0.0
  0
LINE
  5
107
100
AcDbEntity
  8
0
 62
7
100
AcDbLine
 10
7.640946
 20
3.057040
 30
0.0
 11
7.640946
 21
2.457318
 31
0.0
  0
LINE
  5
108
100
AcDbEntity
  8
0
 62
7
100
AcDbLine
 10
14.681068
 20
4.072379
 30
0.0
 11
15.280790
 21
4.072379
 31
0.0
  0
LINE
  5
109
100
AcDbEntity
  8
0
 62
7
100
AcDbLine
 10
15.280790
 20
4.072379
 30
0.0
 11
15.280790
 21
4.712891
 31
0.0
  0
LINE
  5
10a
100
AcDbEntity
  8
0
 62
7
100
AcDbLine
 10
15.280790
 20
4.712891
 30
0.0
 11
14.681068
 21
4.712891
 31
0.0
  0
LINE
  5
10b
100
AcDbEntity
  8
0
 62
7
100
AcDbLine
 10
14.681068
 20
4.712891
 30
0.0
 11
14.681068
 21
4.072379
 31
0.0
  0
LINE
  5
10c
100
AcDbEntity
  8
0
 62
7
100
AcDbLine
 10
14.681068
 20
5.271823
 30
0.0
 11
15.280790
 21
5.271823
 31
0.0
  0
LINE
  5
10d
100
AcDbEntity
  8
0
 62
7
100
AcDbLine
 10
15.280790
 20
5.271823
 30
0.0
 11
15.280790
 21
5.912335
 31
0.0
  0
LINE
  5
10e
100
AcDbEntity
  8
0
 62
7
100
AcDbLine
 10
15.280790
 20
5.912335
 30
0.0
 11
14.681068
 21
5.912335
 31
0.0
  0
LINE
  5
10f
100
AcDbEntity
  8
0
 62
7
100
AcDbLine
 10
14.681068
 20
5.912335
 30
0.0
 11
14.681068
 21
5.271823
 31
0.0
  0
LINE
  5
110
100
AcDbEntity
  8
0
 62
7
100
AcDbLine
 10
20.867908
 20
8.657387
 30
0.0
 11
21.668273
 21
8.657387
 31
0.0
  0
LINE
  5
111
100
AcDbEntity
  8
0
 62
7
100
AcDbLine
 10
21.668273
 20
8.657387
 30
0.0
 11
21.668273
 21
9.657292
 31
0.0
  0
LINE
  5
112
100
AcDbEntity
  8
0
 62
7
100
AcDbLine
 10
21.668273
 20
9.657292
 30
0.0
 11
20.867908
 21
9.657292
 31
0.0
  0
LINE
  5
113
100
AcDbEntity
  8
0
 62
7
100
AcDbLine
 10
20.867908
 20
9.657292
 30
0.0
 11
20.867908
 21
8.657387
 31
0.0
  0
LINE
  5
114
100
AcDbEntity
  8
0
 62
7
100
AcDbLine
 10
19.267179
 20
8.657387
 30
0.0
 11
20.067543
 21
8.657387
 31
0.0
  0
LINE
  5
115
100
AcDbEntity
  8
0
 62
7
100
AcDbLine
 10
20.067543
 20
8.657387
 30
0.0
 11
20.067543
 21
9.657292
 31
0.0
  0
LINE
  5
116
100
AcDbEntity
  8
0
 62
7
100
AcDbLine
 10
20.067543
 20
9.657292
 30
0.0
 11
19.267179
 21
9.657292
 31
0.0
  0
LINE
  5
117
100
AcDbEntity
  8
0
 62
7
100
AcDbLine
 10
19.267179
 20
9.657292
 30
0.0
 11
19.267179
 21
8.657387
 31
0.0
  0
LINE
  5
118
100
AcDbEntity
  8
0
 62
7
100
AcDbLine
 10
16.218958
 20
8.657387
 30
0.0
 11
17.019323
 21
8.657387
 31
0.0
  0
LINE
  5
119
100
AcDbEntity
  8
0
 62
7
100
AcDbLine
 10
17.019323
 20
8.657387
 30
0.0
 11
17.019323
 21
9.657292
 31
0.0
  0
LINE
  5
11a
100
AcDbEntity
  8
0
 62
7
100
AcDbLine
 10
17.019323
 20
9.657292
 30
0.0
 11
16.218958
 21
9.657292
 31
0.0
  0
LINE
  5
11b
100
AcDbEntity
  8
0
 62
7
100
AcDbLine
 10
16.218958
 20
9.657292
 30
0.0
 11
16.218958
 21
8.657387
 31
0.0
  0
LINE
  5
11c
100
AcDbEntity
  8
0
 62
7
100
AcDbLine
 10
17.819688
 20
8.657387
 30
0.0
 11
18.620052
 21
8.657387
 31
0.0
  0
LINE
  5
11d
100
AcDbEntity
  8
0
 62
7
100
AcDbLine
 10
18.620052
 20
8.657387
 30
0.0
 11
18.620052
 21
9.657292
 31
0.0
  0
LINE
  5
11e
100
AcDbEntity
  8
0
 62
7
100
AcDbLine
 10
18.620052
 20
9.657292
 30
0.0
 11
17.819688
 21
9.657292
 31
0.0
  0
LINE
  5
11f
100
AcDbEntity
  8
0
 62
7
100
AcDbLine
 10
17.819688
 20
9.657292
 30
0.0
 11
17.819688
 21
8.657387
 31
0.0
  0
LINE
  5
120
100
AcDbEntity
  8
0
 62
7
100
AcDbLine
 10
12.720946
 20
1.116762
 30
0.0
 11
13.359254
 21
1.116762
 31
0.0
  0
LINE
  5
121
100
AcDbEntity
  8
0
 62
7
100
AcDbLine
 10
13.359254
 20
1.116762
 30
0.0
 11
13.359254
 21
1.755069
 31
0.0
  0
LINE
  5
122
100
AcDbEntity
  8
0
 62
7
100
AcDbLine
 10
13.359254
 20
1.755069
 30
0.0
 11
12.720946
 21
1.755069
 31
0.0
  0
LINE
  5
123
100
AcDbEntity
  8
0
 62
7
100
AcDbLine
 10
12.720946
 20
1.755069
 30
0.0
 11
12.720946
 21
1.116762
 31
0.0
  0
LINE
  5
124
100
AcDbEntity
  8
0
 62
7
100
AcDbLine
 10
11.522604
 20
1.116762
 30
0.0
 11
12.160912
 21
1.116762
 31
0.0
  0
LINE
  5
125
100
AcDbEntity
  8
0
 62
7
100
AcDbLine
 10
12.160912
 20
1.116762
 30
0.0
 11
12.160912
 21
1.755069
 31
0.0
  0
LINE
  5
126
100
AcDbEntity
  8
0
 62
7
100
AcDbLine
 10
12.160912
 20
1.755069
 30
0.0
 11
11.522604
 21
1.755069
 31
0.0
  0
LINE
  5
127
100
AcDbEntity
  8
0
 62
7
100
AcDbLine
 10
11.522604
 20
1.755069
 30
0.0
 11
11.522604
 21
1.116762
 31
0.0
  0
LINE
  5
128
100
AcDbEntity
  8
0
 62
7
100
AcDbLine
 10
10.180946
 20
1.116762
 30
0.0
 11
10.819254
 21
1.116762
 31
0.0
  0
LINE
  5
129
100
AcDbEntity
  8
0
 62
7
100
AcDbLine
 10
10.819254
 20
1.116762
 30
0.0
 11
10.819254
 21
1.755069
 31
0.0
  0
LINE
  5
12a
100
AcDbEntity
  8
0
 62
7
100
AcDbLine
 10
10.819254
 20
1.755069
 30
0.0
 11
10.180946
 21
1.755069
 31
0.0
  0
LINE
  5
12b
100
AcDbEntity
  8
0
 62
7
100
AcDbLine
 10
10.180946
 20
1.755069
 30
0.0
 11
10.180946
 21
1.116762
 31
0.0
  0
LINE
  5
12c
100
AcDbEntity
  8
0
 62
7
100
AcDbLine
 10
8.982604
 20
1.116762
 30
0.0
 11
9.620912
 21
1.116762
 31
0.0
  0
LINE
  5
12d
100
AcDbEntity
  8
0
 62
7
100
AcDbLine
 10
9.620912
 20
1.116762
 30
0.0
 11
9.620912
 21
1.755069
 31
0.0
  0
LINE
  5
12e
100
AcDbEntity
  8
0
 62
7
100
AcDbLine
 10
9.620912
 20
1.755069
 30
0.0
 11
8.982604
 21
1.755069
 31
0.0
  0
LINE
  5
12f
100
AcDbEntity
  8
0
 62
7
100
AcDbLine
 10
8.982604
 20
1.755069
 30
0.0
 11
8.982604
 21
1.116762
 31
0.0
  0
LINE
  5
130
100
AcDbEntity
  8
0
 62
7
100
AcDbLine
 10
23.436571
 20
4.420746
 30
0.0
 11
23.797066
 21
4.420746
 31
0.0
  0
LINE
  5
131
100
AcDbEntity
  8
0
 62
7
100
AcDbLine
 10
23.797066
 20
4.420746
 30
0.0
 11
23.797066
 21
4.892587
 31
0.0
  0
LINE
  5
132
100
AcDbEntity
  8
0
 62
7
100
AcDbLine
 10
23.797066
 20
4.892587
 30
0.0
 11
23.436571
 21
4.892587
 31
0.0
  0
LINE
  5
133
100
AcDbEntity
  8
0
 62
7
100
AcDbLine
 10
23.436571
 20
4.892587
 30
0.0
 11
23.436571
 21
4.420746
 31
0.0
  0
LINE
  5
134
100
AcDbEntity
  8
0
 62
7
100
AcDbLine
 10
23.436571
 20
6.108568
 30
0.0
 11
23.797066
 21
6.108568
 31
0.0
  0
LINE
  5
135
100
AcDbEntity
  8
0
 62
7
100
AcDbLine
 10
23.797066
 20
6.108568
 30
0.0
 11
23.797066
 21
6.580408
 31
0.0
  0
LINE
  5
136
100
AcDbEntity
  8
0
 62
7
100
AcDbLine
 10
23.797066
 20
6.580408
 30
0.0
 11
23.436571
 21
6.580408
 31
0.0
  0
LINE
  5
137
100
AcDbEntity
  8
0
 62
7
100
AcDbLine
 10
23.436571
 20
6.580408
 30
0.0
 11
23.436571
 21
6.108568
 31
0.0
  0
LINE
  5
138
100
AcDbEntity
  8
0
 62
7
100
AcDbLine
 10
22.937170
 20
0.932656
 30
0.0
 11
24.297569
 21
0.932656
 31
0.0
  0
LINE
  5
139
100
AcDbEntity
  8
0
 62
7
100
AcDbLine
 10
24.297569
 20
0.932656
 30
0.0
 11
24.297569
 21
1.652543
 31
0.0
  0
LINE
  5
13a
100
AcDbEntity
  8
0
 62
7
100
AcDbLine
 10
24.297569
 20
1.652543
 30
0.0
 11
22.937170
 21
1.652543
 31
0.0
  0
LINE
  5
13b
100
AcDbEntity
  8
0
 62
7
100
AcDbLine
 10
22.937170
 20
1.652543
 30
0.0
 11
22.937170
 21
0.932656
 31
0.0
  0
LINE
  5
13c
100
AcDbEntity
  8
0
 62
7
100
AcDbLine
 10
22.937170
 20
3.252170
 30
0.0
 11
24.297569
 21
3.252170
 31
0.0
  0
LINE
  5
13d
100
AcDbEntity
  8
0
 62
7
100
AcDbLine
 10
24.297569
 20
3.252170
 30
0.0
 11
24.297569
 21
3.972057
 31
0.0
  0
LINE
  5
13e
100
AcDbEntity
  8
0
 62
7
100
AcDbLine
 10
24.297569
 20
3.972057
 30
0.0
 11
22.937170
 21
3.972057
 31
0.0
  0
LINE
  5
13f
100
AcDbEntity
  8
0
 62
7
100
AcDbLine
 10
22.937170
 20
3.972057
 30
0.0
 11
22.937170
 21
3.252170
 31
0.0
  0
LINE
  5
140
100
AcDbEntity
  8
0
 62
7
100
AcDbLine
 10
12.841111
 20
2.396684
 30
0.0
 11
13.241293
 21
2.396684
 31
0.0
  0
LINE
  5
141
100
AcDbEntity
  8
0
 62
7
100
AcDbLine
 10
13.241293
 20
2.396684
 30
0.0
 11
13.241293
 21
3.116571
 31
0.0
  0
LINE
  5
142
100
AcDbEntity
  8
0
 62
7
100
AcDbLine
 10
13.241293
 20
3.116571
 30
0.0
 11
12.841111
 21
3.116571
 31
0.0
  0
LINE
  5
143
100
AcDbEntity
  8
0
 62
7
100
AcDbLine
 10
12.841111
 20
3.116571
 30
0.0
 11
12.841111
 21
2.396684
 31
0.0
  0
LINE
  5
144
100
AcDbEntity
  8
0
 62
7
100
AcDbLine
 10
11.640564
 20
2.396684
 30
0.0
 11
12.040746
 21
2.396684
 31
0.0
  0
LINE
  5
145
100
AcDbEntity
  8
0
 62
7
100
AcDbLine
 10
12.040746
 20
2.396684
 30
0.0
 11
12.040746
 21
3.116571
 31
0.0
  0
LINE
  5
146
100
AcDbEntity
  8
0
 62
7
100
AcDbLine
 10
12.040746
 20
3.116571
 30
0.0
 11
11.640564
 21
3.116571
 31
0.0
  0
LINE
  5
147
100
AcDbEntity
  8
0
 62
7
100
AcDbLine
 10
11.640564
 20
3.116571
 30
0.0
 11
11.640564
 21
2.396684
 31
0.0
  0
LINE
  5
148
100
AcDbEntity
  8
0
 62
7
100
AcDbLine
 10
5.221111
 20
2.396684
 30
0.0
 11
5.621293
 21
2.396684
 31
0.0
  0
LINE
  5
149
100
AcDbEntity
  8
0
 62
7
100
AcDbLine
 10
5.621293
 20
2.396684
 30
0.0
 11
5.621293
 21
3.116571
 31
0.0
  0
LINE
  5
14a
100
AcDbEntity
  8
0
 62
7
100
AcDbLine
 10
5.621293
 20
3.116571
 30
0.0
 11
5.221111
 21
3.116571
 31
0.0
  0
LINE
  5
14b
100
AcDbEntity
  8
0
 62
7
100
AcDbLine
 10
5.221111
 20
3.116571
 30
0.0
 11
5.221111
 21
2.396684
 31
0.0
  0
LINE
  5
14c
100
AcDbEntity
  8
0
 62
7
100
AcDbLine
 10
4.020564
 20
2.396684
 30
0.0
 11
4.420746
 21
2.396684
 31
0.0
  0
LINE
  5
14d
100
AcDbEntity
  8
0
 62
7
100
AcDbLine
 10
4.420746
 20
2.396684
 30
0.0
 11
4.420746
 21
3.116571
 31
0.0
  0
LINE
  5
14e
100
AcDbEntity
  8
0
 62
7
100
AcDbLine
 10
4.420746
 20
3.116571
 30
0.0
 11
4.020564
 21
3.116571
 31
0.0
  0
LINE
  5
14f
100
AcDbEntity
  8
0
 62
7
100
AcDbLine
 10
4.020564
 20
3.116571
 30
0.0
 11
4.020564
 21
2.396684
 31
0.0
  0
LINE
  5
150
100
AcDbEntity
  8
0
 62
7
100
AcDbLine
 10
1.480564
 20
2.396684
 30
0.0
 11
1.880746
 21
2.396684
 31
0.0
  0
LINE
  5
151
100
AcDbEntity
  8
0
 62
7
100
AcDbLine
 10
1.880746
 20
2.396684
 30
0.0
 11
1.880746
 21
3.116571
 31
0.0
  0
LINE
  5
152
100
AcDbEntity
  8
0
 62
7
100
AcDbLine
 10
1.880746
 20
3.116571
 30
0.0
 11
1.480564
 21
3.116571
 31
0.0
  0
LINE
  5
153
100
AcDbEntity
  8
0
 62
7
100
AcDbLine
 10
1.480564
 20
3.116571
 30
0.0
 11
1.480564
 21
2.396684
 31
0.0
  0
LINE
  5
154
100
AcDbEntity
  8
0
 62
7
100
AcDbLine
 10
2.681111
 20
2.396684
 30
0.0
 11
3.081293
 21
2.396684
 31
0.0
  0
LINE
  5
155
100
AcDbEntity
  8
0
 62
7
100
AcDbLine
 10
3.081293
 20
2.396684
 30
0.0
 11
3.081293
 21
3.116571
 31
0.0
  0
LINE
  5
156
100
AcDbEntity
  8
0
 62
7
100
AcDbLine
 10
3.081293
 20
3.116571
 30
0.0
 11
2.681111
 21
3.116571
 31
0.0
  0
LINE
  5
157
100
AcDbEntity
  8
0
 62
7
100
AcDbLine
 10
2.681111
 20
3.116571
 30
0.0
 11
2.681111
 21
2.396684
 31
0.0
  0
LINE
  5
158
100
AcDbEntity
  8
0
 62
7
100
AcDbLine
 10
10.301111
 20
2.396684
 30
0.0
 11
10.701293
 21
2.396684
 31
0.0
  0
LINE
  5
159
100
AcDbEntity
  8
0
 62
7
100
AcDbLine
 10
10.701293
 20
2.396684
 30
0.0
 11
10.701293
 21
3.116571
 31
0.0
  0
LINE
  5
15a
100
AcDbEntity
  8
0
 62
7
100
AcDbLine
 10
10.701293
 20
3.116571
 30
0.0
 11
10.301111
 21
3.116571
 31
0.0
  0
LINE
  5
15b
100
AcDbEntity
  8
0
 62
7
100
AcDbLine
 10
10.301111
 20
3.116571
 30
0.0
 11
10.301111
 21
2.396684
 31
0.0
  0
LINE
  5
15c
100
AcDbEntity
  8
0
 62
7
100
AcDbLine
 10
9.100564
 20
2.396684
 30
0.0
 11
9.500746
 21
2.396684
 31
0.0
  0
LINE
  5
15d
100
AcDbEntity
  8
0
 62
7
100
AcDbLine
 10
9.500746
 20
2.396684
 30
0.0
 11
9.500746
 21
3.116571
 31
0.0
  0
LINE
  5
15e
100
AcDbEntity
  8
0
 62
7
100
AcDbLine
 10
9.500746
 20
3.116571
 30
0.0
 11
9.100564
 21
3.116571
 31
0.0
  0
LINE
  5
15f
100
AcDbEntity
  8
0
 62
7
100
AcDbLine
 10
9.100564
 20
3.116571
 30
0.0
 11
9.100564
 21
2.396684
 31
0.0
  0
LINE
  5
160
100
AcDbEntity
  8
0
 62
7
100
AcDbLine
 10
23.256875
 20
8.440208
 30
0.0
 11
23.976762
 21
8.440208
 31
0.0
  0
LINE
  5
161
100
AcDbEntity
  8
0
 62
7
100
AcDbLine
 10
23.976762
 20
8.440208
 30
0.0
 11
23.976762
 21
8.840391
 31
0.0
  0
LINE
  5
162
100
AcDbEntity
  8
0
 62
7
100
AcDbLine
 10
23.976762
 20
8.840391
 30
0.0
 11
23.256875
 21
8.840391
 31
0.0
  0
LINE
  5
163
100
AcDbEntity
  8
0
 62
7
100
AcDbLine
 10
23.256875
 20
8.840391
 30
0.0
 11
23.256875
 21
8.440208
 31
0.0
  0
LINE
  5
164
100
AcDbEntity
  8
0
 62
7
100
AcDbLine
 10
23.256875
 20
7.239662
 30
0.0
 11
23.976762
 21
7.239662
 31
0.0
  0
LINE
  5
165
100
AcDbEntity
  8
0
 62
7
100
AcDbLine
 10
23.976762
 20
7.239662
 30
0.0
 11
23.976762
 21
7.639844
 31
0.0
  0
LINE
  5
166
100
AcDbEntity
  8
0
 62
7
100
AcDbLine
 10
23.976762
 20
7.639844
 30
0.0
 11
23.256875
 21
7.639844
 31
0.0
  0
LINE
  5
167
100
AcDbEntity
  8
0
 62
7
100
AcDbLine
 10
23.256875
 20
7.639844
 30
0.0
 11
23.256875
 21
7.239662
 31
0.0
  0
LINE
  5
168
100
AcDbEntity
  8
0
 62
7
100
AcDbLine
 10
23.256875
 20
10.980208
 30
0.0
 11
23.976762
 21
10.980208
 31
0.0
  0
LINE
  5
169
100
AcDbEntity
  8
0
 62
7
100
AcDbLine
 10
23.976762
 20
10.980208
 30
0.0
 11
23.976762
 21
11.380391
 31
0.0
  0
LINE
  5
16a
100
AcDbEntity
  8
0
 62
7
100
AcDbLine
 10
23.976762
 20
11.380391
 30
0.0
 11
23.256875
 21
11.380391
 31
0.0
  0
LINE
  5
16b
100
AcDbEntity
  8
0
 62
7
100
AcDbLine
 10
23.256875
 20
11.380391
 30
0.0
 11
23.256875
 21
10.980208
 31
0.0
  0
LINE
  5
16c
100
AcDbEntity
  8
0
 62
7
100
AcDbLine
 10
23.256875
 20
9.779662
 30
0.0
 11
23.976762
 21
9.779662
 31
0.0
  0
LINE
  5
16d
100
AcDbEntity
  8
0
 62
7
100
AcDbLine
 10
23.976762
 20
9.779662
 30
0.0
 11
23.976762
 21
10.179844
 31
0.0
  0
LINE
  5
16e
100
AcDbEntity
  8
0
 62
7
100
AcDbLine
 10
23.976762
 20
10.179844
 30
0.0
 11
23.256875
 21
10.179844
 31
0.0
  0
LINE
  5
16f
100
AcDbEntity
  8
0
 62
7
100
AcDbLine
 10
23.256875
 20
10.179844
 30
0.0
 11
23.256875
 21
9.779662
 31
0.0
  0
LINE
  5
170
100
AcDbEntity
  8
0
 62
7
100
AcDbLine
 10
2.681111
 20
18.855972
 30
0.0
 11
3.081293
 21
18.855972
 31
0.0
  0
LINE
  5
171
100
AcDbEntity
  8
0
 62
7
100
AcDbLine
 10
3.081293
 20
18.855972
 30
0.0
 11
3.081293
 21
19.575859
 31
0.0
  0
LINE
  5
172
100
AcDbEntity
  8
0
 62
7
100
AcDbLine
 10
3.081293
 20
19.575859
 30
0.0
 11
2.681111
 21
19.575859
 31
0.0
  0
LINE
  5
173
100
AcDbEntity
  8
0
 62
7
100
AcDbLine
 10
2.681111
 20
19.575859
 30
0.0
 11
2.681111
 21
18.855972
 31
0.0
  0
LINE
  5
174
100
AcDbEntity
  8
0
 62
7
100
AcDbLine
 10
1.480564
 20
18.855972
 30
0.0
 11
1.880746
 21
18.855972
 31
0.0
  0
LINE
  5
175
100
AcDbEntity
  8
0
 62
7
100
AcDbLine
 10
1.880746
 20
18.855972
 30
0.0
 11
1.880746
 21
19.575859
 31
0.0
  0
LINE
  5
176
100
AcDbEntity
  8
0
 62
7
100
AcDbLine
 10
1.880746
 20
19.575859
 30
0.0
 11
1.480564
 21
19.575859
 31
0.0
  0
LINE
  5
177
100
AcDbEntity
  8
0
 62
7
100
AcDbLine
 10
1.480564
 20
19.575859
 30
0.0
 11
1.480564
 21
18.855972
 31
0.0
  0
LINE
  5
178
100
AcDbEntity
  8
0
 62
7
100
AcDbLine
 10
5.221111
 20
18.855972
 30
0.0
 11
5.621293
 21
18.855972
 31
0.0
  0
LINE
  5
179
100
AcDbEntity
  8
0
 62
7
100
AcDbLine
 10
5.621293
 20
18.855972
 30
0.0
 11
5.621293
 21
19.575859
 31
0.0
  0
LINE
  5
17a
100
AcDbEntity
  8
0
 62
7
100
AcDbLine
 10
5.621293
 20
19.575859
 30
0.0
 11
5.221111
 21
19.575859
 31
0.0
  0
LINE
  5
17b
100
AcDbEntity
  8
0
 62
7
100
AcDbLine
 10
5.221111
 20
19.575859
 30
0.0
 11
5.221111
 21
18.855972
 31
0.0
  0
LINE
  5
17c
100
AcDbEntity
  8
0
 62
7
100
AcDbLine
 10
4.020564
 20
18.855972
 30
0.0
 11
4.420746
 21
18.855972
 31
0.0
  0
LINE
  5
17d
100
AcDbEntity
  8
0
 62
7
100
AcDbLine
 10
4.420746
 20
18.855972
 30
0.0
 11
4.420746
 21
19.575859
 31
0.0
  0
LINE
  5
17e
100
AcDbEntity
  8
0
 62
7
100
AcDbLine
 10
4.420746
 20
19.575859
 30
0.0
 11
4.020564
 21
19.575859
 31
0.0
  0
LINE
  5
17f
100
AcDbEntity
  8
0
 62
7
100
AcDbLine
 10
4.020564
 20
19.575859
 30
0.0
 11
4.020564
 21
18.855972
 31
0.0
  0
LINE
  5
180
100
AcDbEntity
  8
0
 62
7
100
AcDbLine
 10
9.608785
 20
18.855972
 30
0.0
 11
10.008967
 21
18.855972
 31
0.0
  0
LINE
  5
181
100
AcDbEntity
  8
0
 62
7
100
AcDbLine
 10
10.008967
 20
18.855972
 30
0.0
 11
10.008967
 21
19.575859
 31
0.0
  0
LINE
  5
182
100
AcDbEntity
  8
0
 62
7
100
AcDbLine
 10
10.008967
 20
19.575859
 30
0.0
 11
9.608785
 21
19.575859
 31
0.0
  0
LINE
  5
183
100
AcDbEntity
  8
0
 62
7
100
AcDbLine
 10
9.608785
 20
19.575859
 30
0.0
 11
9.608785
 21
18.855972
 31
0.0
  0
LINE
  5
184
100
AcDbEntity
  8
0
 62
7
100
AcDbLine
 10
10.809332
 20
18.855972
 30
0.0
 11
11.209514
 21
18.855972
 31
0.0
  0
LINE
  5
185
100
AcDbEntity
  8
0
 62
7
100
AcDbLine
 10
11.209514
 20
18.855972
 30
0.0
 11
11.209514
 21
19.575859
 31
0.0
  0
LINE
  5
186
100
AcDbEntity
  8
0
 62
7
100
AcDbLine
 10
11.209514
 20
19.575859
 30
0.0
 11
10.809332
 21
19.575859
 31
0.0
  0
LINE
  5
187
100
AcDbEntity
  8
0
 62
7
100
AcDbLine
 10
10.809332
 20
19.575859
 30
0.0
 11
10.809332
 21
18.855972
 31
0.0
  0
SPLINE
  5
188
100
AcDbEntity
  8
0
 62
7
100
AcDbSpline
 70
8
 71
3
 72
8
 73
4
 74
0
 40
0
 40
0
 40
0
 40
0
 40
1
 40
1
 40
1
 40
1
 10
13.682266
 20
7.396207
 30
0.0
 10
13.095773
 20
7.396207
 30
0.0
 10
13.095773
 20
6.516467
 30
0.0
 10
13.682266
 20
6.516467
 30
0.0
  0
LINE
  5
189
100
AcDbEntity
  8
0
 62
7
100
AcDbLine
 10
13.682266
 20
6.516467
 30
0.0
 11
14.721857
 21
6.516467
 31
0.0
  0
SPLINE
  5
18a
100
AcDbEntity
  8
0
 62
7
100
AcDbSpline
 70
8
 71
3
 72
8
 73
4
 74
0
 40
0
 40
0
 40
0
 40
0
 40
1
 40
1
 40
1
 40
1
 10
14.721857
 20
6.516467
 30
0.0
 10
15.308351
 20
6.516467
 30
0.0
 10
15.308351
 20
7.396207
 30
0.0
 10
14.721857
 20
7.396207
 30
0.0
  0
LINE
  5
18b
100
AcDbEntity
  8
0
 62
7
100
AcDbLine
 10
14.721857
 20
7.396207
 30
0.0
 11
13.682266
 21
7.396207
 31
0.0
  0
SPLINE
  5
18c
100
AcDbEntity
  8
0
 62
7
100
AcDbSpline
 70
8
 71
3
 72
8
 73
4
 74
0
 40
0
 40
0
 40
0
 40
0
 40
1
 40
1
 40
1
 40
1
 10
13.682266
 20
8.995833
 30
0.0
 10
13.095773
 20
8.995833
 30
0.0
 10
13.095773
 20
8.116094
 30
0.0
 10
13.682266
 20
8.116094
 30
0.0
  0
LINE
  5
18d
100
AcDbEntity
  8
0
 62
7
100
AcDbLine
 10
13.682266
 20
8.116094
 30
0.0
 11
14.721857
 21
8.116094
 31
0.0
  0
SPLINE
  5
18e
100
AcDbEntity
  8
0
 62
7
100
AcDbSpline
 70
8
 71
3
 72
8
 73
4
 74
0
 40
0
 40
0
 40
0
 40
0
 40
1
 40
1
 40
1
 40
1
 10
14.721857
 20
8.116094
 30
0.0
 10
15.308351
 20
8.116094
 30
0.0
 10
15.308351
 20
8.995833
 30
0.0
 10
14.721857
 20
8.995833
 30
0.0
  0
LINE
  5
18f
100
AcDbEntity
  8
0
 62
7
100
AcDbLine
 10
14.721857
 20
8.995833
 30
0.0
 11
13.682266
 21
8.995833
 31
0.0
  0
SPLINE
  5
190
100
AcDbEntity
  8
0
 62
7
100
AcDbSpline
 70
8
 71
3
 72
8
 73
4
 74
0
 40
0
 40
0
 40
0
 40
0
 40
1
 40
1
 40
1
 40
1
 10
13.682266
 20
10.596563
 30
0.0
 10
13.095773
 20
10.596563
 30
0.0
 10
13.095773
 20
9.715720
 30
0.0
 10
13.682266
 20
9.715720
 30
0.0
  0
LINE
  5
191
100
AcDbEntity
  8
0
 62
7
100
AcDbLine
 10
13.682266
 20
9.715720
 30
0.0
 11
14.721857
 21
9.715720
 31
0.0
  0
SPLINE
  5
192
100
AcDbEntity
  8
0
 62
7
100
AcDbSpline
 70
8
 71
3
 72
8
 73
4
 74
0
 40
0
 40
0
 40
0
 40
0
 40
1
 40
1
 40
1
 40
1
 10
14.721857
 20
9.715720
 30
0.0
 10
15.308351
 20
9.715720
 30
0.0
 10
15.308351
 20
10.596563
 30
0.0
 10
14.721857
 20
10.596563
 30
0.0
  0
LINE
  5
193
100
AcDbEntity
  8
0
 62
7
100
AcDbLine
 10
14.721857
 20
10.596563
 30
0.0
 11
13.682266
 21
10.596563
 31
0.0
  0
SPLINE
  5
194
100
AcDbEntity
  8
0
 62
7
100
AcDbSpline
 70
8
 71
3
 72
8
 73
4
 74
0
 40
0
 40
0
 40
0
 40
0
 40
1
 40
1
 40
1
 40
1
 10
13.682266
 20
12.196189
 30
0.0
 10
13.095773
 20
12.196189
 30
0.0
 10
13.095773
 20
11.316450
 30
0.0
 10
13.682266
 20
11.316450
 30
0.0
  0
LINE
  5
195
100
AcDbEntity
  8
0
 62
7
100
AcDbLine
 10
13.682266
 20
11.316450
 30
0.0
 11
14.721857
 21
11.316450
 31
0.0
  0
SPLINE
  5
196
100
AcDbEntity
  8
0
 62
7
100
AcDbSpline
 70
8
 71
3
 72
8
 73
4
 74
0
 40
0
 40
0
 40
0
 40
0
 40
1
 40
1
 40
1
 40
1
 10
14.721857
 20
11.316450
 30
0.0
 10
15.308351
 20
11.316450
 30
0.0
 10
15.308351
 20
12.196189
 30
0.0
 10
14.721857
 20
12.196189
 30
0.0
  0
LINE
  5
197
100
AcDbEntity
  8
0
 62
7
100
AcDbLine
 10
14.721857
 20
12.196189
 30
0.0
 11
13.682266
 21
12.196189
 31
0.0
  0
SPLINE
  5
198
100
AcDbEntity
  8
0
 62
7
100
AcDbSpline
 70
8
 71
3
 72
8
 73
4
 74
0
 40
0
 40
0
 40
0
 40
0
 40
1
 40
1
 40
1
 40
1
 10
13.682266
 20
13.795816
 30
0.0
 10
13.095773
 20
13.795816
 30
0.0
 10
13.095773
 20
12.916076
 30
0.0
 10
13.682266
 20
12.916076
 30
0.0
  0
LINE
  5
199
100
AcDbEntity
  8
0
 62
7
100
AcDbLine
 10
13.682266
 20
12.916076
 30
0.0
 11
14.721857
 21
12.916076
 31
0.0
  0
SPLINE
  5
19a
100
AcDbEntity
  8
0
 62
7
100
AcDbSpline
 70
8
 71
3
 72
8
 73
4
 74
0
 40
0
 40
0
 40
0
 40
0
 40
1
 40
1
 40
1
 40
1
 10
14.721857
 20
12.916076
 30
0.0
 10
15.080111
 20
12.916076
 30
0.0
 10
15.219529
 20
13.244329
 30
0.0
 10
15.140112
 20
13.499815
 30
0.0
  0
SPLINE
  5
19b
100
AcDbEntity
  8
0
 62
7
100
AcDbSpline
 70
8
 71
3
 72
8
 73
4
 74
0
 40
0
 40
0
 40
0
 40
0
 40
1
 40
1
 40
1
 40
1
 10
15.140112
 20
13.499815
 30
0.0
 10
15.089516
 20
13.662583
 30
0.0
 10
14.950098
 20
13.795816
 30
0.0
 10
14.721857
 20
13.795816
 30
0.0
  0
LINE
  5
19c
100
AcDbEntity
  8
0
 62
7
100
AcDbLine
 10
14.721857
 20
13.795816
 30
0.0
 11
13.682266
 21
13.795816
 31
0.0
  0
SPLINE
  5
19d
100
AcDbEntity
  8
0
 62
7
100
AcDbSpline
 70
8
 71
3
 72
8
 73
4
 74
0
 40
0
 40
0
 40
0
 40
0
 40
1
 40
1
 40
1
 40
1
 10
13.682266
 20
15.396545
 30
0.0
 10
13.095773
 20
15.396545
 30
0.0
 10
13.095773
 20
14.515703
 30
0.0
 10
13.682266
 20
14.515703
 30
0.0
  0
LINE
  5
19e
100
AcDbEntity
  8
0
 62
7
100
AcDbLine
 10
13.682266
 20
14.515703
 30
0.0
 11
14.721857
 21
14.515703
 31
0.0
  0
SPLINE
  5
19f
100
AcDbEntity
  8
0
 62
7
100
AcDbSpline
 70
8
 71
3
 72
8
 73
4
 74
0
 40
0
 40
0
 40
0
 40
0
 40
1
 40
1
 40
1
 40
1
 10
14.721857
 20
14.515703
 30
0.0
 10
15.308351
 20
14.515703
 30
0.0
 10
15.308351
 20
15.396545
 30
0.0
 10
14.721857
 20
15.396545
 30
0.0
  0
LINE
  5
1a0
100
AcDbEntity
  8
0
 62
7
100
AcDbLine
 10
14.721857
 20
15.396545
 30
0.0
 11
13.682266
 21
15.396545
 31
0.0
  0
LINE
  5
1a1
100
AcDbEntity
  8
0
 62
7
100
AcDbLine
 10
1.161962
 20
3.603845
 30
0.0
 11
2.041701
 21
3.603845
 31
0.0
  0
LINE
  5
1a2
100
AcDbEntity
  8
0
 62
7
100
AcDbLine
 10
2.041701
 20
3.603845
 30
0.0
 11
2.041701
 21
5.524280
 31
0.0
  0
LINE
  5
1a3
100
AcDbEntity
  8
0
 62
7
100
AcDbLine
 10
2.041701
 20
5.524280
 30
0.0
 11
1.161962
 21
5.524280
 31
0.0
  0
LINE
  5
1a4
100
AcDbEntity
  8
0
 62
7
100
AcDbLine
 10
1.161962
 20
5.524280
 30
0.0
 11
1.161962
 21
3.603845
 31
0.0
  0
SPLINE
  5
1a5
100
AcDbEntity
  8
0
 62
7
100
AcDbSpline
 70
8
 71
3
 72
8
 73
4
 74
0
 40
0
 40
0
 40
0
 40
0
 40
1
 40
1
 40
1
 40
1
 10
3.642431
 20
5.084410
 30
0.0
 10
3.642431
 20
5.670903
 30
0.0
 10
2.761588
 20
5.670903
 30
0.0
 10
2.761588
 20
5.084410
 30
0.0
  0
LINE
  5
1a6
100
AcDbEntity
  8
0
 62
7
100
AcDbLine
 10
2.761588
 20
5.084410
 30
0.0
 11
2.761588
 21
4.043715
 31
0.0
  0
SPLINE
  5
1a7
100
AcDbEntity
  8
0
 62
7
100
AcDbSpline
 70
8
 71
3
 72
8
 73
4
 74
0
 40
0
 40
0
 40
0
 40
0
 40
1
 40
1
 40
1
 40
1
 10
2.761588
 20
4.043715
 30
0.0
 10
2.761588
 20
3.457222
 30
0.0
 10
3.642431
 20
3.457222
 30
0.0
 10
3.642431
 20
4.043715
 30
0.0
  0
LINE
  5
1a8
100
AcDbEntity
  8
0
 62
7
100
AcDbLine
 10
3.642431
 20
4.043715
 30
0.0
 11
3.642431
 21
5.084410
 31
0.0
  0
SPLINE
  5
1a9
100
AcDbEntity
  8
0
 62
7
100
AcDbSpline
 70
8
 71
3
 72
8
 73
4
 74
0
 40
0
 40
0
 40
0
 40
0
 40
1
 40
1
 40
1
 40
1
 10
5.242057
 20
5.084410
 30
0.0
 10
5.242057
 20
5.670903
 30
0.0
 10
4.362318
 20
5.670903
 30
0.0
 10
4.362318
 20
5.084410
 30
0.0
  0
LINE
  5
1aa
100
AcDbEntity
  8
0
 62
7
100
AcDbLine
 10
4.362318
 20
5.084410
 30
0.0
 11
4.362318
 21
4.043715
 31
0.0
  0
SPLINE
  5
1ab
100
AcDbEntity
  8
0
 62
7
100
AcDbSpline
 70
8
 71
3
 72
8
 73
4
 74
0
 40
0
 40
0
 40
0
 40
0
 40
1
 40
1
 40
1
 40
1
 10
4.362318
 20
4.043715
 30
0.0
 10
4.362318
 20
3.457222
 30
0.0
 10
5.242057
 20
3.457222
 30
0.0
 10
5.242057
 20
4.043715
 30
0.0
  0
LINE
  5
1ac
100
AcDbEntity
  8
0
 62
7
100
AcDbLine
 10
5.242057
 20
4.043715
 30
0.0
 11
5.242057
 21
5.084410
 31
0.0
  0
SPLINE
  5
1ad
100
AcDbEntity
  8
0
 62
7
100
AcDbSpline
 70
8
 71
3
 72
8
 73
4
 74
0
 40
0
 40
0
 40
0
 40
0
 40
1
 40
1
 40
1
 40
1
 10
6.841684
 20
5.084410
 30
0.0
 10
6.841684
 20
5.670903
 30
0.0
 10
5.961944
 20
5.670903
 30
0.0
 10
5.961944
 20
5.084410
 30
0.0
  0
LINE
  5
1ae
100
AcDbEntity
  8
0
 62
7
100
AcDbLine
 10
5.961944
 20
5.084410
 30
0.0
 11
5.961944
 21
4.043715
 31
0.0
  0
SPLINE
  5
1af
100
AcDbEntity
  8
0
 62
7
100
AcDbSpline
 70
8
 71
3
 72
8
 73
4
 74
0
 40
0
 40
0
 40
0
 40
0
 40
1
 40
1
 40
1
 40
1
 10
5.961944
 20
4.043715
 30
0.0
 10
5.961944
 20
3.457222
 30
0.0
 10
6.841684
 20
3.457222
 30
0.0
 10
6.841684
 20
4.043715
 30
0.0
  0
LINE
  5
1b0
100
AcDbEntity
  8
0
 62
7
100
AcDbLine
 10
6.841684
 20
4.043715
 30
0.0
 11
6.841684
 21
5.084410
 31
0.0
  0
SPLINE
  5
1b1
100
AcDbEntity
  8
0
 62
7
100
AcDbSpline
 70
8
 71
3
 72
8
 73
4
 74
0
 40
0
 40
0
 40
0
 40
0
 40
1
 40
1
 40
1
 40
1
 10
8.442413
 20
5.084410
 30
0.0
 10
8.442413
 20
5.670903
 30
0.0
 10
7.561571
 20
5.670903
 30
0.0
 10
7.561571
 20
5.084410
 30
0.0
  0
LINE
  5
1b2
100
AcDbEntity
  8
0
 62
7
100
AcDbLine
 10
7.561571
 20
5.084410
 30
0.0
 11
7.561571
 21
4.043715
 31
0.0
  0
SPLINE
  5
1b3
100
AcDbEntity
  8
0
 62
7
100
AcDbSpline
 70
8
 71
3
 72
8
 73
4
 74
0
 40
0
 40
0
 40
0
 40
0
 40
1
 40
1
 40
1
 40
1
 10
7.561571
 20
4.043715
 30
0.0
 10
7.561571
 20
3.457222
 30
0.0
 10
8.442413
 20
3.457222
 30
0.0
 10
8.442413
 20
4.043715
 30
0.0
  0
LINE
  5
1b4
100
AcDbEntity
  8
0
 62
7
100
AcDbLine
 10
8.442413
 20
4.043715
 30
0.0
 11
8.442413
 21
5.084410
 31
0.0
  0
SPLINE
  5
1b5
100
AcDbEntity
  8
0
 62
7
100
AcDbSpline
 70
8
 71
3
 72
8
 73
4
 74
0
 40
0
 40
0
 40
0
 40
0
 40
1
 40
1
 40
1
 40
1
 10
10.042040
 20
5.084410
 30
0.0
 10
10.042040
 20
5.670903
 30
0.0
 10
9.162300
 20
5.670903
 30
0.0
 10
9.162300
 20
5.084410
 30
0.0
  0
LINE
  5
1b6
100
AcDbEntity
  8
0
 62
7
100
AcDbLine
 10
9.162300
 20
5.084410
 30
0.0
 11
9.162300
 21
4.043715
 31
0.0
  0
SPLINE
  5
1b7
100
AcDbEntity
  8
0
 62
7
100
AcDbSpline
 70
8
 71
3
 72
8
 73
4
 74
0
 40
0
 40
0
 40
0
 40
0
 40
1
 40
1
 40
1
 40
1
 10
9.162300
 20
4.043715
 30
0.0
 10
9.162300
 20
3.457222
 30
0.0
 10
10.042040
 20
3.457222
 30
0.0
 10
10.042040
 20
4.043715
 30
0.0
  0
LINE
  5
1b8
100
AcDbEntity
  8
0
 62
7
100
AcDbLine
 10
10.042040
 20
4.043715
 30
0.0
 11
10.042040
 21
5.084410
 31
0.0
  0
SPLINE
  5
1b9
100
AcDbEntity
  8
0
 62
7
100
AcDbSpline
 70
8
 71
3
 72
8
 73
4
 74
0
 40
0
 40
0
 40
0
 40
0
 40
1
 40
1
 40
1
 40
1
 10
11.641667
 20
5.084410
 30
0.0
 10
11.641667
 20
5.670903
 30
0.0
 10
10.761927
 20
5.670903
 30
0.0
 10
10.761927
 20
5.084410
 30
0.0
  0
LINE
  5
1ba
100
AcDbEntity
  8
0
 62
7
100
AcDbLine
 10
10.761927
 20
5.084410
 30
0.0
 11
10.761927
 21
4.043715
 31
0.0
  0
SPLINE
  5
1bb
100
AcDbEntity
  8
0
 62
7
100
AcDbSpline
 70
8
 71
3
 72
8
 73
4
 74
0
 40
0
 40
0
 40
0
 40
0
 40
1
 40
1
 40
1
 40
1
 10
10.761927
 20
4.043715
 30
0.0
 10
10.761927
 20
3.457222
 30
0.0
 10
11.641667
 20
3.457222
 30
0.0
 10
11.641667
 20
4.043715
 30
0.0
  0
LINE
  5
1bc
100
AcDbEntity
  8
0
 62
7
100
AcDbLine
 10
11.641667
 20
4.043715
 30
0.0
 11
11.641667
 21
5.084410
 31
0.0
  0
SPLINE
  5
1bd
100
AcDbEntity
  8
0
 62
7
100
AcDbSpline
 70
8
 71
3
 72
8
 73
4
 74
0
 40
0
 40
0
 40
0
 40
0
 40
1
 40
1
 40
1
 40
1
 10
13.242396
 20
5.084410
 30
0.0
 10
13.242396
 20
5.670903
 30
0.0
 10
12.361554
 20
5.670903
 30
0.0
 10
12.361554
 20
5.084410
 30
0.0
  0
LINE
  5
1be
100
AcDbEntity
  8
0
 62
7
100
AcDbLine
 10
12.361554
 20
5.084410
 30
0.0
 11
12.361554
 21
4.043715
 31
0.0
  0
SPLINE
  5
1bf
100
AcDbEntity
  8
0
 62
7
100
AcDbSpline
 70
8
 71
3
 72
8
 73
4
 74
0
 40
0
 40
0
 40
0
 40
0
 40
1
 40
1
 40
1
 40
1
 10
12.361554
 20
4.043715
 30
0.0
 10
12.361554
 20
3.457222
 30
0.0
 10
13.242396
 20
3.457222
 30
0.0
 10
13.242396
 20
4.043715
 30
0.0
  0
LINE
  5
1c0
100
AcDbEntity
  8
0
 62
7
100
AcDbLine
 10
13.242396
 20
4.043715
 30
0.0
 11
13.242396
 21
5.084410
 31
0.0
  0
SPLINE
  5
1c1
100
AcDbEntity
  8
0
 62
7
100
AcDbSpline
 70
8
 71
3
 72
8
 73
4
 74
0
 40
0
 40
0
 40
0
 40
0
 40
1
 40
1
 40
1
 40
1
 10
13.242396
 20
17.884731
 30
0.0
 10
13.242396
 20
18.471224
 30
0.0
 10
12.361554
 20
18.471224
 30
0.0
 10
12.361554
 20
17.884731
 30
0.0
  0
LINE
  5
1c2
100
AcDbEntity
  8
0
 62
7
100
AcDbLine
 10
12.361554
 20
17.884731
 30
0.0
 11
12.361554
 21
16.844037
 31
0.0
  0
SPLINE
  5
1c3
100
AcDbEntity
  8
0
 62
7
100
AcDbSpline
 70
8
 71
3
 72
8
 73
4
 74
0
 40
0
 40
0
 40
0
 40
0
 40
1
 40
1
 40
1
 40
1
 10
12.361554
 20
16.844037
 30
0.0
 10
12.361554
 20
16.257543
 30
0.0
 10
13.242396
 20
16.257543
 30
0.0
 10
13.242396
 20
16.844037
 30
0.0
  0
LINE
  5
1c4
100
AcDbEntity
  8
0
 62
7
100
AcDbLine
 10
13.242396
 20
16.844037
 30
0.0
 11
13.242396
 21
17.884731
 31
0.0
  0
SPLINE
  5
1c5
100
AcDbEntity
  8
0
 62
7
100
AcDbSpline
 70
8
 71
3
 72
8
 73
4
 74
0
 40
0
 40
0
 40
0
 40
0
 40
1
 40
1
 40
1
 40
1
 10
11.641667
 20
17.884731
 30
0.0
 10
11.641667
 20
18.471224
 30
0.0
 10
10.761927
 20
18.471224
 30
0.0
 10
10.761927
 20
17.884731
 30
0.0
  0
LINE
  5
1c6
100
AcDbEntity
  8
0
 62
7
100
AcDbLine
 10
10.761927
 20
17.884731
 30
0.0
 11
10.761927
 21
16.844037
 31
0.0
  0
SPLINE
  5
1c7
100
AcDbEntity
  8
0
 62
7
100
AcDbSpline
 70
8
 71
3
 72
8
 73
4
 74
0
 40
0
 40
0
 40
0
 40
0
 40
1
 40
1
 40
1
 40
1
 10
10.761927
 20
16.844037
 30
0.0
 10
10.761927
 20
16.257543
 30
0.0
 10
11.641667
 20
16.257543
 30
0.0
 10
11.641667
 20
16.844037
 30
0.0
  0
LINE
  5
1c8
100
AcDbEntity
  8
0
 62
7
100
AcDbLine
 10
11.641667
 20
16.844037
 30
0.0
 11
11.641667
 21
17.884731
 31
0.0
  0
SPLINE
  5
1c9
100
AcDbEntity
  8
0
 62
7
100
AcDbSpline
 70
8
 71
3
 72
8
 73
4
 74
0
 40
0
 40
0
 40
0
 40
0
 40
1
 40
1
 40
1
 40
1
 10
10.042040
 20
17.884731
 30
0.0
 10
10.042040
 20
18.471224
 30
0.0
 10
9.162300
 20
18.471224
 30
0.0
 10
9.162300
 20
17.884731
 30
0.0
  0
LINE
  5
1ca
100
AcDbEntity
  8
0
 62
7
100
AcDbLine
 10
9.162300
 20
17.884731
 30
0.0
 11
9.162300
 21
16.844037
 31
0.0
  0
SPLINE
  5
1cb
100
AcDbEntity
  8
0
 62
7
100
AcDbSpline
 70
8
 71
3
 72
8
 73
4
 74
0
 40
0
 40
0
 40
0
 40
0
 40
1
 40
1
 40
1
 40
1
 10
9.162300
 20
16.844037
 30
0.0
 10
9.162300
 20
16.257543
 30
0.0
 10
10.042040
 20
16.257543
 30
0.0
 10
10.042040
 20
16.844037
 30
0.0
  0
LINE
  5
1cc
100
AcDbEntity
  8
0
 62
7
100
AcDbLine
 10
10.042040
 20
16.844037
 30
0.0
 11
10.042040
 21
17.884731
 31
0.0
  0
SPLINE
  5
1cd
100
AcDbEntity
  8
0
 62
7
100
AcDbSpline
 70
8
 71
3
 72
8
 73
4
 74
0
 40
0
 40
0
 40
0
 40
0
 40
1
 40
1
 40
1
 40
1
 10
8.442413
 20
17.884731
 30
0.0
 10
8.442413
 20
18.471224
 30
0.0
 10
7.561571
 20
18.471224
 30
0.0
 10
7.561571
 20
17.884731
 30
0.0
  0
LINE
  5
1ce
100
AcDbEntity
  8
0
 62
7
100
AcDbLine
 10
7.561571
 20
17.884731
 30
0.0
 11
7.561571
 21
16.844037
 31
0.0
  0
SPLINE
  5
1cf
100
AcDbEntity
  8
0
 62
7
100
AcDbSpline
 70
8
 71
3
 72
8
 73
4
 74
0
 40
0
 40
0
 40
0
 40
0
 40
1
 40
1
 40
1
 40
1
 10
7.561571
 20
16.844037
 30
0.0
 10
7.561571
 20
16.257543
 30
0.0
 10
8.442413
 20
16.257543
 30
0.0
 10
8.442413
 20
16.844037
 30
0.0
  0
LINE
  5
1d0
100
AcDbEntity
  8
0
 62
7
100
AcDbLine
 10
8.442413
 20
16.844037
 30
0.0
 11
8.442413
 21
17.884731
 31
0.0
  0
SPLINE
  5
1d1
100
AcDbEntity
  8
0
 62
7
100
AcDbSpline
 70
8
 71
3
 72
8
 73
4
 74
0
 40
0
 40
0
 40
0
 40
0
 40
1
 40
1
 40
1
 40
1
 10
6.841684
 20
17.884731
 30
0.0
 10
6.841684
 20
18.471224
 30
0.0
 10
5.961944
 20
18.471224
 30
0.0
 10
5.961944
 20
17.884731
 30
0.0
  0
LINE
  5
1d2
100
AcDbEntity
  8
0
 62
7
100
AcDbLine
 10
5.961944
 20
17.884731
 30
0.0
 11
5.961944
 21
16.844037
 31
0.0
  0
SPLINE
  5
1d3
100
AcDbEntity
  8
0
 62
7
100
AcDbSpline
 70
8
 71
3
 72
8
 73
4
 74
0
 40
0
 40
0
 40
0
 40
0
 40
1
 40
1
 40
1
 40
1
 10
5.961944
 20
16.844037
 30
0.0
 10
5.961944
 20
16.257543
 30
0.0
 10
6.841684
 20
16.257543
 30
0.0
 10
6.841684
 20
16.844037
 30
0.0
  0
LINE
  5
1d4
100
AcDbEntity
  8
0
 62
7
100
AcDbLine
 10
6.841684
 20
16.844037
 30
0.0
 11
6.841684
 21
17.884731
 31
0.0
  0
SPLINE
  5
1d5
100
AcDbEntity
  8
0
 62
7
100
AcDbSpline
 70
8
 71
3
 72
8
 73
4
 74
0
 40
0
 40
0
 40
0
 40
0
 40
1
 40
1
 40
1
 40
1
 10
5.242057
 20
17.884731
 30
0.0
 10
5.242057
 20
18.471224
 30
0.0
 10
4.362318
 20
18.471224
 30
0.0
 10
4.362318
 20
17.884731
 30
0.0
  0
LINE
  5
1d6
100
AcDbEntity
  8
0
 62
7
100
AcDbLine
 10
4.362318
 20
17.884731
 30
0.0
 11
4.362318
 21
16.844037
 31
0.0
  0
SPLINE
  5
1d7
100
AcDbEntity
  8
0
 62
7
100
AcDbSpline
 70
8
 71
3
 72
8
 73
4
 74
0
 40
0
 40
0
 40
0
 40
0
 40
1
 40
1
 40
1
 40
1
 10
4.362318
 20
16.844037
 30
0.0
 10
4.362318
 20
16.257543
 30
0.0
 10
5.242057
 20
16.257543
 30
0.0
 10
5.242057
 20
16.844037
 30
0.0
  0
LINE
  5
1d8
100
AcDbEntity
  8
0
 62
7
100
AcDbLine
 10
5.242057
 20
16.844037
 30
0.0
 11
5.242057
 21
17.884731
 31
0.0
  0
SPLINE
  5
1d9
100
AcDbEntity
  8
0
 62
7
100
AcDbSpline
 70
8
 71
3
 72
8
 73
4
 74
0
 40
0
 40
0
 40
0
 40
0
 40
1
 40
1
 40
1
 40
1
 10
3.642431
 20
17.884731
 30
0.0
 10
3.642431
 20
18.471224
 30
0.0
 10
2.761588
 20
18.471224
 30
0.0
 10
2.761588
 20
17.884731
 30
0.0
  0
LINE
  5
1da
100
AcDbEntity
  8
0
 62
7
100
AcDbLine
 10
2.761588
 20
17.884731
 30
0.0
 11
2.761588
 21
16.844037
 31
0.0
  0
SPLINE
  5
1db
100
AcDbEntity
  8
0
 62
7
100
AcDbSpline
 70
8
 71
3
 72
8
 73
4
 74
0
 40
0
 40
0
 40
0
 40
0
 40
1
 40
1
 40
1
 40
1
 10
2.761588
 20
16.844037
 30
0.0
 10
2.761588
 20
16.257543
 30
0.0
 10
3.642431
 20
16.257543
 30
0.0
 10
3.642431
 20
16.844037
 30
0.0
  0
LINE
  5
1dc
100
AcDbEntity
  8
0
 62
7
100
AcDbLine
 10
3.642431
 20
16.844037
 30
0.0
 11
3.642431
 21
17.884731
 31
0.0
  0
SPLINE
  5
1dd
100
AcDbEntity
  8
0
 62
7
100
AcDbSpline
 70
8
 71
3
 72
8
 73
4
 74
0
 40
0
 40
0
 40
0
 40
0
 40
1
 40
1
 40
1
 40
1
 10
2.041701
 20
17.884731
 30
0.0
 10
2.041701
 20
18.471224
 30
0.0
 10
1.161962
 20
18.471224
 30
0.0
 10
1.161962
 20
17.884731
 30
0.0
  0
LINE
  5
1de
100
AcDbEntity
  8
0
 62
7
100
AcDbLine
 10
1.161962
 20
17.884731
 30
0.0
 11
1.161962
 21
16.844037
 31
0.0
  0
SPLINE
  5
1df
100
AcDbEntity
  8
0
 62
7
100
AcDbSpline
 70
8
 71
3
 72
8
 73
4
 74
0
 40
0
 40
0
 40
0
 40
0
 40
1
 40
1
 40
1
 40
1
 10
1.161962
 20
16.844037
 30
0.0
 10
1.161962
 20
16.257543
 30
0.0
 10
2.041701
 20
16.257543
 30
0.0
 10
2.041701
 20
16.844037
 30
0.0
  0
LINE
  5
1e0
100
AcDbEntity
  8
0
 62
7
100
AcDbLine
 10
2.041701
 20
16.844037
 30
0.0
 11
2.041701
 21
17.884731
 31
0.0
  0
LINE
  5
1e1
100
AcDbEntity
  8
0
 62
7
100
AcDbLine
 10
17.581563
 20
1.029670
 30
0.0
 11
20.507413
 21
1.029670
 31
0.0
  0
LINE
  5
1e2
100
AcDbEntity
  8
0
 62
7
100
AcDbLine
 10
20.507413
 20
1.029670
 30
0.0
 11
20.507413
 21
2.655755
 31
0.0
  0
LINE
  5
1e3
100
AcDbEntity
  8
0
 62
7
100
AcDbLine
 10
20.507413
 20
2.655755
 30
0.0
 11
17.581563
 21
2.655755
 31
0.0
  0
LINE
  5
1e4
100
AcDbEntity
  8
0
 62
7
100
AcDbLine
 10
17.581563
 20
2.655755
 30
0.0
 11
17.581563
 21
1.029670
 31
0.0
  0
LINE
  5
1e5
100
AcDbEntity
  8
0
 62
7
100
AcDbLine
 10
18.638793
 20
6.312518
 30
0.0
 11
19.451285
 21
6.312518
 31
0.0
  0
LINE
  5
1e6
100
AcDbEntity
  8
0
 62
7
100
AcDbLine
 10
19.451285
 20
6.312518
 30
0.0
 11
19.451285
 21
7.938602
 31
0.0
  0
LINE
  5
1e7
100
AcDbEntity
  8
0
 62
7
100
AcDbLine
 10
19.451285
 20
7.938602
 30
0.0
 11
18.638793
 21
7.938602
 31
0.0
  0
LINE
  5
1e8
100
AcDbEntity
  8
0
 62
7
100
AcDbLine
 10
18.638793
 20
7.938602
 30
0.0
 11
18.638793
 21
6.312518
 31
0.0
  0
LINE
  5
1e9
100
AcDbEntity
  8
0
 62
7
100
AcDbLine
 10
16.809861
 20
6.312518
 30
0.0
 11
17.622352
 21
6.312518
 31
0.0
  0
LINE
  5
1ea
100
AcDbEntity
  8
0
 62
7
100
AcDbLine
 10
17.622352
 20
6.312518
 30
0.0
 11
17.622352
 21
7.938602
 31
0.0
  0
LINE
  5
1eb
100
AcDbEntity
  8
0
 62
7
100
AcDbLine
 10
17.622352
 20
7.938602
 30
0.0
 11
16.809861
 21
7.938602
 31
0.0
  0
LINE
  5
1ec
100
AcDbEntity
  8
0
 62
7
100
AcDbLine
 10
16.809861
 20
7.938602
 30
0.0
 11
16.809861
 21
6.312518
 31
0.0
  0
LINE
  5
1ed
100
AcDbEntity
  8
0
 62
7
100
AcDbLine
 10
20.467726
 20
6.312518
 30
0.0
 11
21.280217
 21
6.312518
 31
0.0
  0
LINE
  5
1ee
100
AcDbEntity
  8
0
 62
7
100
AcDbLine
 10
21.280217
 20
6.312518
 30
0.0
 11
21.280217
 21
7.938602
 31
0.0
  0
LINE
  5
1ef
100
AcDbEntity
  8
0
 62
7
100
AcDbLine
 10
21.280217
 20
7.938602
 30
0.0
 11
20.467726
 21
7.938602
 31
0.0
  0
LINE
  5
1f0
100
AcDbEntity
  8
0
 62
7
100
AcDbLine
 10
20.467726
 20
7.938602
 30
0.0
 11
20.467726
 21
6.312518
 31
0.0
  0
LINE
  5
1f1
100
AcDbEntity
  8
0
 62
7
100
AcDbLine
 10
18.805260
 20
11.631745
 30
0.0
 11
19.284818
 21
11.631745
 31
0.0
  0
LINE
  5
1f2
100
AcDbEntity
  8
0
 62
7
100
AcDbLine
 10
19.284818
 20
11.631745
 30
0.0
 11
19.284818
 21
11.967986
 31
0.0
  0
LINE
  5
1f3
100
AcDbEntity
  8
0
 62
7
100
AcDbLine
 10
19.284818
 20
11.967986
 30
0.0
 11
18.805260
 21
11.967986
 31
0.0
  0
LINE
  5
1f4
100
AcDbEntity
  8
0
 62
7
100
AcDbLine
 10
18.805260
 20
11.967986
 30
0.0
 11
18.805260
 21
11.631745
 31
0.0
  0
LINE
  5
1f5
100
AcDbEntity
  8
0
 62
7
100
AcDbLine
 10
18.805260
 20
12.150990
 30
0.0
 11
19.284818
 21
12.150990
 31
0.0
  0
LINE
  5
1f6
100
AcDbEntity
  8
0
 62
7
100
AcDbLine
 10
19.284818
 20
12.150990
 30
0.0
 11
19.284818
 21
12.487231
 31
0.0
  0
LINE
  5
1f7
100
AcDbEntity
  8
0
 62
7
100
AcDbLine
 10
19.284818
 20
12.487231
 30
0.0
 11
18.805260
 21
12.487231
 31
0.0
  0
LINE
  5
1f8
100
AcDbEntity
  8
0
 62
7
100
AcDbLine
 10
18.805260
 20
12.487231
 30
0.0
 11
18.805260
 21
12.150990
 31
0.0
  0
LINE
  5
1f9
100
AcDbEntity
  8
0
 62
7
100
AcDbLine
 10
18.805260
 20
12.671337
 30
0.0
 11
19.284818
 21
12.671337
 31
0.0
  0
LINE
  5
1fa
100
AcDbEntity
  8
0
 62
7
100
AcDbLine
 10
19.284818
 20
12.671337
 30
0.0
 11
19.284818
 21
13.007578
 31
0.0
  0
LINE
  5
1fb
100
AcDbEntity
  8
0
 62
7
100
AcDbLine
 10
19.284818
 20
13.007578
 30
0.0
 11
18.805260
 21
13.007578
 31
0.0
  0
LINE
  5
1fc
100
AcDbEntity
  8
0
 62
7
100
AcDbLine
 10
18.805260
 20
13.007578
 30
0.0
 11
18.805260
 21
12.671337
 31
0.0
  0
LINE
  5
1fd
100
AcDbEntity
  8
0
 62
7
100
AcDbLine
 10
17.285009
 20
12.671337
 30
0.0
 11
17.764566
 21
12.671337
 31
0.0
  0
LINE
  5
1fe
100
AcDbEntity
  8
0
 62
7
100
AcDbLine
 10
17.764566
 20
12.671337
 30
0.0
 11
17.764566
 21
13.007578
 31
0.0
  0
LINE
  5
1ff
100
AcDbEntity
  8
0
 62
7
100
AcDbLine
 10
17.764566
 20
13.007578
 30
0.0
 11
17.285009
 21
13.007578
 31
0.0
  0
LINE
  5
200
100
AcDbEntity
  8
0
 62
7
100
AcDbLine
 10
17.285009
 20
13.007578
 30
0.0
 11
17.285009
 21
12.671337
 31
0.0
  0
LINE
  5
201
100
AcDbEntity
  8
0
 62
7
100
AcDbLine
 10
17.285009
 20
12.150990
 30
0.0
 11
17.764566
 21
12.150990
 31
0.0
  0
LINE
  5
202
100
AcDbEntity
  8
0
 62
7
100
AcDbLine
 10
17.764566
 20
12.150990
 30
0.0
 11
17.764566
 21
12.487231
 31
0.0
  0
LINE
  5
203
100
AcDbEntity
  8
0
 62
7
100
AcDbLine
 10
17.764566
 20
12.487231
 30
0.0
 11
17.285009
 21
12.487231
 31
0.0
  0
LINE
  5
204
100
AcDbEntity
  8
0
 62
7
100
AcDbLine
 10
17.285009
 20
12.487231
 30
0.0
 11
17.285009
 21
12.150990
 31
0.0
  0
LINE
  5
205
100
AcDbEntity
  8
0
 62
7
100
AcDbLine
 10
17.285009
 20
11.631745
 30
0.0
 11
17.764566
 21
11.631745
 31
0.0
  0
LINE
  5
206
100
AcDbEntity
  8
0
 62
7
100
AcDbLine
 10
17.764566
 20
11.631745
 30
0.0
 11
17.764566
 21
11.967986
 31
0.0
  0
LINE
  5
207
100
AcDbEntity
  8
0
 62
7
100
AcDbLine
 10
17.764566
 20
11.967986
 30
0.0
 11
17.285009
 21
11.967986
 31
0.0
  0
LINE
  5
208
100
AcDbEntity
  8
0
 62
7
100
AcDbLine
 10
17.285009
 20
11.967986
 30
0.0
 11
17.285009
 21
11.631745
 31
0.0
  0
LINE
  5
209
100
AcDbEntity
  8
0
 62
7
100
AcDbLine
 10
16.680877
 20
14.979826
 30
0.0
 11
17.240912
 21
14.979826
 31
0.0
  0
LINE
  5
20a
100
AcDbEntity
  8
0
 62
7
100
AcDbLine
 10
17.240912
 20
14.979826
 30
0.0
 11
17.240912
 21
16.419601
 31
0.0
  0
LINE
  5
20b
100
AcDbEntity
  8
0
 62
7
100
AcDbLine
 10
17.240912
 20
16.419601
 30
0.0
 11
16.680877
 21
16.419601
 31
0.0
  0
LINE
  5
20c
100
AcDbEntity
  8
0
 62
7
100
AcDbLine
 10
16.680877
 20
16.419601
 30
0.0
 11
16.680877
 21
14.979826
 31
0.0
  0
LINE
  5
20d
100
AcDbEntity
  8
0
 62
7
100
AcDbLine
 10
17.680781
 20
14.979826
 30
0.0
 11
18.240816
 21
14.979826
 31
0.0
  0
LINE
  5
20e
100
AcDbEntity
  8
0
 62
7
100
AcDbLine
 10
18.240816
 20
14.979826
 30
0.0
 11
18.240816
 21
16.419601
 31
0.0
  0
LINE
  5
20f
100
AcDbEntity
  8
0
 62
7
100
AcDbLine
 10
18.240816
 20
16.419601
 30
0.0
 11
17.680781
 21
16.419601
 31
0.0
  0
LINE
  5
210
100
AcDbEntity
  8
0
 62
7
100
AcDbLine
 10
17.680781
 20
16.419601
 30
0.0
 11
17.680781
 21
14.979826
 31
0.0
  0
LINE
  5
211
100
AcDbEntity
  8
0
 62
7
100
AcDbLine
 10
18.680686
 20
14.979826
 30
0.0
 11
19.240720
 21
14.979826
 31
0.0
  0
LINE
  5
212
100
AcDbEntity
  8
0
 62
7
100
AcDbLine
 10
19.240720
 20
14.979826
 30
0.0
 11
19.240720
 21
16.419601
 31
0.0
  0
LINE
  5
213
100
AcDbEntity
  8
0
 62
7
100
AcDbLine
 10
19.240720
 20
16.419601
 30
0.0
 11
18.680686
 21
16.419601
 31
0.0
  0
LINE
  5
214
100
AcDbEntity
  8
0
 62
7
100
AcDbLine
 10
18.680686
 20
16.419601
 30
0.0
 11
18.680686
 21
14.979826
 31
0.0
  0
LINE
  5
215
100
AcDbEntity
  8
0
 62
7
100
AcDbLine
 10
19.680590
 20
14.979826
 30
0.0
 11
20.240625
 21
14.979826
 31
0.0
  0
LINE
  5
216
100
AcDbEntity
  8
0
 62
7
100
AcDbLine
 10
20.240625
 20
14.979826
 30
0.0
 11
20.240625
 21
16.419601
 31
0.0
  0
LINE
  5
217
100
AcDbEntity
  8
0
 62
7
100
AcDbLine
 10
20.240625
 20
16.419601
 30
0.0
 11
19.680590
 21
16.419601
 31
0.0
  0
LINE
  5
218
100
AcDbEntity
  8
0
 62
7
100
AcDbLine
 10
19.680590
 20
16.419601
 30
0.0
 11
19.680590
 21
14.979826
 31
0.0
  0
LINE
  5
219
100
AcDbEntity
  8
0
 62
7
100
AcDbLine
 10
20.680495
 20
14.979826
 30
0.0
 11
21.240530
 21
14.979826
 31
0.0
  0
LINE
  5
21a
100
AcDbEntity
  8
0
 62
7
100
AcDbLine
 10
21.240530
 20
14.979826
 30
0.0
 11
21.240530
 21
16.419601
 31
0.0
  0
LINE
  5
21b
100
AcDbEntity
  8
0
 62
7
100
AcDbLine
 10
21.240530
 20
16.419601
 30
0.0
 11
20.680495
 21
16.419601
 31
0.0
  0
LINE
  5
21c
100
AcDbEntity
  8
0
 62
7
100
AcDbLine
 10
20.680495
 20
16.419601
 30
0.0
 11
20.680495
 21
14.979826
 31
0.0
  0
LINE
  5
21d
100
AcDbEntity
  8
0
 62
7
100
AcDbLine
 10
21.681502
 20
14.979826
 30
0.0
 11
22.241537
 21
14.979826
 31
0.0
  0
LINE
  5
21e
100
AcDbEntity
  8
0
 62
7
100
AcDbLine
 10
22.241537
 20
14.979826
 30
0.0
 11
22.241537
 21
16.419601
 31
0.0
  0
LINE
  5
21f
100
AcDbEntity
  8
0
 62
7
100
AcDbLine
 10
22.241537
 20
16.419601
 30
0.0
 11
21.681502
 21
16.419601
 31
0.0
  0
LINE
  5
220
100
AcDbEntity
  8
0
 62
7
100
AcDbLine
 10
21.681502
 20
16.419601
 30
0.0
 11
21.681502
 21
14.979826
 31
0.0
  0
LINE
  5
221
100
AcDbEntity
  8
0
 62
7
100
AcDbLine
 10
14.521215
 20
17.460295
 30
0.0
 11
15.801137
 21
17.460295
 31
0.0
  0
LINE
  5
222
100
AcDbEntity
  8
0
 62
7
100
AcDbLine
 10
15.801137
 20
17.460295
 30
0.0
 11
15.801137
 21
19.219774
 31
0.0
  0
LINE
  5
223
100
AcDbEntity
  8
0
 62
7
100
AcDbLine
 10
15.801137
 20
19.219774
 30
0.0
 11
14.521215
 21
19.219774
 31
0.0
  0
LINE
  5
224
100
AcDbEntity
  8
0
 62
7
100
AcDbLine
 10
14.521215
 20
19.219774
 30
0.0
 11
14.521215
 21
17.460295
 31
0.0
  0
LINE
  5
225
100
AcDbEntity
  8
0
 62
7
100
AcDbLine
 10
23.121276
 20
17.460295
 30
0.0
 11
24.401198
 21
17.460295
 31
0.0
  0
LINE
  5
226
100
AcDbEntity
  8
0
 62
7
100
AcDbLine
 10
24.401198
 20
17.460295
 30
0.0
 11
24.401198
 21
19.219774
 31
0.0
  0
LINE
  5
227
100
AcDbEntity
  8
0
 62
7
100
AcDbLine
 10
24.401198
 20
19.219774
 30
0.0
 11
23.121276
 21
19.219774
 31
0.0
  0
LINE
  5
228
100
AcDbEntity
  8
0
 62
7
100
AcDbLine
 10
23.121276
 20
19.219774
 30
0.0
 11
23.121276
 21
17.460295
 31
0.0
  0
ENDSEC
  0
SECTION
  2
OBJECTS
  0
DICTIONARY
  5
C
330
0
100
AcDbDictionary
  3
ACAD_GROUP
350
D
  3
ACAD_MLINESTYLE
350
17
  0
DICTIONARY
  5
D
330
C
100
AcDbDictionary
  0
DICTIONARY
  5
1A
330
C
100
AcDbDictionary
  0
DICTIONARY
  5
17
330
C
100
AcDbDictionary
  3
STANDARD
350
18
  0
DICTIONARY
  5
19
330
C
100
AcDbDictionary
  0
ENDSEC
  0
EOF
