<?xml version="1.0" encoding="UTF-8"?>
<svg xmlns="http://www.w3.org/2000/svg" xmlns:xlink="http://www.w3.org/1999/xlink" width="90pt" height="72pt" viewBox="0 0 90 72" version="1.1">
<g id="surface11765">
<path style=" stroke:none;fill-rule:evenodd;fill:rgb(100%,49.803922%,45.098039%);fill-opacity:1;" d="M 22.824219 63.292969 L 25.09375 63.292969 L 25.09375 61.167969 L 22.824219 61.167969 Z M 22.824219 63.292969 "/>
<path style=" stroke:none;fill-rule:evenodd;fill:rgb(100%,49.803922%,45.098039%);fill-opacity:1;" d="M 27.074219 63.292969 L 29.34375 63.292969 L 29.34375 61.167969 L 27.074219 61.167969 Z M 27.074219 63.292969 "/>
<path style=" stroke:none;fill-rule:evenodd;fill:rgb(100%,49.803922%,45.098039%);fill-opacity:1;" d="M 52.019531 57.570312 L 54.144531 57.570312 L 54.144531 55.300781 L 52.019531 55.300781 Z M 52.019531 57.570312 "/>
<path style=" stroke:none;fill-rule:evenodd;fill:rgb(100%,49.803922%,45.098039%);fill-opacity:1;" d="M 52.019531 53.320312 L 54.144531 53.320312 L 54.144531 51.050781 L 52.019531 51.050781 Z M 52.019531 53.320312 "/>
<path style=" stroke:none;fill-rule:evenodd;fill:rgb(100%,49.803922%,45.098039%);fill-opacity:1;" d="M 73.941406 41.324219 L 76.777344 41.324219 L 76.777344 37.78125 L 73.941406 37.78125 Z M 73.941406 41.324219 "/>
<path style=" stroke:none;fill-rule:evenodd;fill:rgb(100%,49.803922%,45.098039%);fill-opacity:1;" d="M 68.269531 41.324219 L 71.105469 41.324219 L 71.105469 37.78125 L 68.269531 37.78125 Z M 68.269531 41.324219 "/>
<path style=" stroke:none;fill-rule:evenodd;fill:rgb(100%,49.803922%,45.098039%);fill-opacity:1;" d="M 57.46875 41.324219 L 60.304688 41.324219 L 60.304688 37.78125 L 57.46875 37.78125 Z M 57.46875 41.324219 "/>
<path style=" stroke:none;fill-rule:evenodd;fill:rgb(100%,49.803922%,45.098039%);fill-opacity:1;" d="M 63.140625 41.324219 L 65.976562 41.324219 L 65.976562 37.78125 L 63.140625 37.78125 Z M 63.140625 41.324219 "/>
<path style=" stroke:none;fill-rule:evenodd;fill:rgb(100%,49.803922%,45.098039%);fill-opacity:1;" d="M 45.074219 68.042969 L 47.335938 68.042969 L 47.335938 65.78125 L 45.074219 65.78125 Z M 45.074219 68.042969 "/>
<path style=" stroke:none;fill-rule:evenodd;fill:rgb(100%,49.803922%,45.098039%);fill-opacity:1;" d="M 40.828125 68.042969 L 43.089844 68.042969 L 43.089844 65.78125 L 40.828125 65.78125 Z M 40.828125 68.042969 "/>
<path style=" stroke:none;fill-rule:evenodd;fill:rgb(100%,49.803922%,45.098039%);fill-opacity:1;" d="M 36.074219 68.042969 L 38.335938 68.042969 L 38.335938 65.78125 L 36.074219 65.78125 Z M 36.074219 68.042969 "/>
<path style=" stroke:none;fill-rule:evenodd;fill:rgb(100%,49.803922%,45.098039%);fill-opacity:1;" d="M 31.828125 68.042969 L 34.089844 68.042969 L 34.089844 65.78125 L 31.828125 65.78125 Z M 31.828125 68.042969 "/>
<path style=" stroke:none;fill-rule:evenodd;fill:rgb(100%,49.803922%,45.098039%);fill-opacity:1;" d="M 83.042969 56.335938 L 84.320312 56.335938 L 84.320312 54.664062 L 83.042969 54.664062 Z M 83.042969 56.335938 "/>
<path style=" stroke:none;fill-rule:evenodd;fill:rgb(100%,49.803922%,45.098039%);fill-opacity:1;" d="M 83.042969 50.355469 L 84.320312 50.355469 L 84.320312 48.683594 L 83.042969 48.683594 Z M 83.042969 50.355469 "/>
<path style=" stroke:none;fill-rule:evenodd;fill:rgb(100%,49.803922%,45.098039%);fill-opacity:1;" d="M 81.273438 68.695312 L 86.09375 68.695312 L 86.09375 66.144531 L 81.273438 66.144531 Z M 81.273438 68.695312 "/>
<path style=" stroke:none;fill-rule:evenodd;fill:rgb(100%,49.803922%,45.098039%);fill-opacity:1;" d="M 81.273438 60.476562 L 86.09375 60.476562 L 86.09375 57.925781 L 81.273438 57.925781 Z M 81.273438 60.476562 "/>
<path style=" stroke:none;fill-rule:evenodd;fill:rgb(100%,49.803922%,45.098039%);fill-opacity:1;" d="M 45.5 63.507812 L 46.917969 63.507812 L 46.917969 60.957031 L 45.5 60.957031 Z M 45.5 63.507812 "/>
<path style=" stroke:none;fill-rule:evenodd;fill:rgb(100%,49.803922%,45.098039%);fill-opacity:1;" d="M 41.246094 63.507812 L 42.664062 63.507812 L 42.664062 60.957031 L 41.246094 60.957031 Z M 41.246094 63.507812 "/>
<path style=" stroke:none;fill-rule:evenodd;fill:rgb(100%,49.803922%,45.098039%);fill-opacity:1;" d="M 18.5 63.507812 L 19.917969 63.507812 L 19.917969 60.957031 L 18.5 60.957031 Z M 18.5 63.507812 "/>
<path style=" stroke:none;fill-rule:evenodd;fill:rgb(100%,49.803922%,45.098039%);fill-opacity:1;" d="M 14.246094 63.507812 L 15.664062 63.507812 L 15.664062 60.957031 L 14.246094 60.957031 Z M 14.246094 63.507812 "/>
<path style=" stroke:none;fill-rule:evenodd;fill:rgb(100%,49.803922%,45.098039%);fill-opacity:1;" d="M 5.246094 63.507812 L 6.664062 63.507812 L 6.664062 60.957031 L 5.246094 60.957031 Z M 5.246094 63.507812 "/>
<path style=" stroke:none;fill-rule:evenodd;fill:rgb(100%,49.803922%,45.098039%);fill-opacity:1;" d="M 9.5 63.507812 L 10.917969 63.507812 L 10.917969 60.957031 L 9.5 60.957031 Z M 9.5 63.507812 "/>
<path style=" stroke:none;fill-rule:evenodd;fill:rgb(100%,49.803922%,45.098039%);fill-opacity:1;" d="M 36.5 63.507812 L 37.917969 63.507812 L 37.917969 60.957031 L 36.5 60.957031 Z M 36.5 63.507812 "/>
<path style=" stroke:none;fill-rule:evenodd;fill:rgb(100%,49.803922%,45.098039%);fill-opacity:1;" d="M 32.246094 63.507812 L 33.664062 63.507812 L 33.664062 60.957031 L 32.246094 60.957031 Z M 32.246094 63.507812 "/>
<path style=" stroke:none;fill-rule:evenodd;fill:rgb(100%,49.803922%,45.098039%);fill-opacity:1;" d="M 82.40625 42.09375 L 84.957031 42.09375 L 84.957031 40.675781 L 82.40625 40.675781 Z M 82.40625 42.09375 "/>
<path style=" stroke:none;fill-rule:evenodd;fill:rgb(100%,49.803922%,45.098039%);fill-opacity:1;" d="M 82.40625 46.347656 L 84.957031 46.347656 L 84.957031 44.929688 L 82.40625 44.929688 Z M 82.40625 46.347656 "/>
<path style=" stroke:none;fill-rule:evenodd;fill:rgb(100%,49.803922%,45.098039%);fill-opacity:1;" d="M 82.40625 33.09375 L 84.957031 33.09375 L 84.957031 31.675781 L 82.40625 31.675781 Z M 82.40625 33.09375 "/>
<path style=" stroke:none;fill-rule:evenodd;fill:rgb(100%,49.803922%,45.098039%);fill-opacity:1;" d="M 82.40625 37.347656 L 84.957031 37.347656 L 84.957031 35.929688 L 82.40625 35.929688 Z M 82.40625 37.347656 "/>
<path style=" stroke:none;fill-rule:evenodd;fill:rgb(100%,49.803922%,45.098039%);fill-opacity:1;" d="M 9.5 5.1875 L 10.917969 5.1875 L 10.917969 2.636719 L 9.5 2.636719 Z M 9.5 5.1875 "/>
<path style=" stroke:none;fill-rule:evenodd;fill:rgb(100%,49.803922%,45.098039%);fill-opacity:1;" d="M 5.246094 5.1875 L 6.664062 5.1875 L 6.664062 2.636719 L 5.246094 2.636719 Z M 5.246094 5.1875 "/>
<path style=" stroke:none;fill-rule:evenodd;fill:rgb(100%,49.803922%,45.098039%);fill-opacity:1;" d="M 18.5 5.1875 L 19.917969 5.1875 L 19.917969 2.636719 L 18.5 2.636719 Z M 18.5 5.1875 "/>
<path style=" stroke:none;fill-rule:evenodd;fill:rgb(100%,49.803922%,45.098039%);fill-opacity:1;" d="M 14.246094 5.1875 L 15.664062 5.1875 L 15.664062 2.636719 L 14.246094 2.636719 Z M 14.246094 5.1875 "/>
<path style=" stroke:none;fill-rule:evenodd;fill:rgb(100%,49.803922%,45.098039%);fill-opacity:1;" d="M 34.046875 5.1875 L 35.464844 5.1875 L 35.464844 2.636719 L 34.046875 2.636719 Z M 34.046875 5.1875 "/>
<path style=" stroke:none;fill-rule:evenodd;fill:rgb(100%,49.803922%,45.098039%);fill-opacity:1;" d="M 38.300781 5.1875 L 39.71875 5.1875 L 39.71875 2.636719 L 38.300781 2.636719 Z M 38.300781 5.1875 "/>
<path style=" stroke:none;fill-rule:evenodd;fill:rgb(100%,49.803922%,45.098039%);fill-opacity:1;" d="M 48.480469 45.792969 C 46.402344 45.792969 46.402344 48.910156 48.480469 48.910156 L 52.164062 48.910156 C 54.242188 48.910156 54.242188 45.792969 52.164062 45.792969 L 48.480469 45.792969 "/>
<path style=" stroke:none;fill-rule:evenodd;fill:rgb(100%,49.803922%,45.098039%);fill-opacity:1;" d="M 48.480469 40.125 C 46.402344 40.125 46.402344 43.242188 48.480469 43.242188 L 52.164062 43.242188 C 54.242188 43.242188 54.242188 40.125 52.164062 40.125 L 48.480469 40.125 "/>
<path style=" stroke:none;fill-rule:evenodd;fill:rgb(100%,49.803922%,45.098039%);fill-opacity:1;" d="M 48.480469 34.453125 C 46.402344 34.453125 46.402344 37.574219 48.480469 37.574219 L 52.164062 37.574219 C 54.242188 37.574219 54.242188 34.453125 52.164062 34.453125 L 48.480469 34.453125 "/>
<path style=" stroke:none;fill-rule:evenodd;fill:rgb(100%,49.803922%,45.098039%);fill-opacity:1;" d="M 48.480469 28.785156 C 46.402344 28.785156 46.402344 31.902344 48.480469 31.902344 L 52.164062 31.902344 C 54.242188 31.902344 54.242188 28.785156 52.164062 28.785156 L 48.480469 28.785156 "/>
<path style=" stroke:none;fill-rule:evenodd;fill:rgb(100%,49.803922%,45.098039%);fill-opacity:1;" d="M 48.480469 23.117188 C 46.402344 23.117188 46.402344 26.234375 48.480469 26.234375 L 52.164062 26.234375 C 54.242188 26.234375 54.242188 23.117188 52.164062 23.117188 L 48.480469 23.117188 "/>
<path style=" stroke:none;fill-rule:evenodd;fill:rgb(100%,49.803922%,45.098039%);fill-opacity:1;" d="M 48.480469 17.445312 C 46.402344 17.445312 46.402344 20.566406 48.480469 20.566406 L 52.164062 20.566406 C 54.242188 20.566406 54.242188 17.445312 52.164062 17.445312 L 48.480469 17.445312 "/>
<path style=" stroke:none;fill-rule:evenodd;fill:rgb(100%,49.803922%,45.098039%);fill-opacity:1;" d="M 4.117188 59.230469 L 7.234375 59.230469 L 7.234375 52.425781 L 4.117188 52.425781 Z M 4.117188 59.230469 "/>
<path style=" stroke:none;fill-rule:evenodd;fill:rgb(100%,49.803922%,45.098039%);fill-opacity:1;" d="M 12.90625 53.984375 C 12.90625 51.90625 9.785156 51.90625 9.785156 53.984375 L 9.785156 57.671875 C 9.785156 59.75 12.90625 59.75 12.90625 57.671875 L 12.90625 53.984375 "/>
<path style=" stroke:none;fill-rule:evenodd;fill:rgb(100%,49.803922%,45.098039%);fill-opacity:1;" d="M 18.574219 53.984375 C 18.574219 51.90625 15.457031 51.90625 15.457031 53.984375 L 15.457031 57.671875 C 15.457031 59.75 18.574219 59.75 18.574219 57.671875 L 18.574219 53.984375 "/>
<path style=" stroke:none;fill-rule:evenodd;fill:rgb(100%,49.803922%,45.098039%);fill-opacity:1;" d="M 24.242188 53.984375 C 24.242188 51.90625 21.125 51.90625 21.125 53.984375 L 21.125 57.671875 C 21.125 59.75 24.242188 59.75 24.242188 57.671875 L 24.242188 53.984375 "/>
<path style=" stroke:none;fill-rule:evenodd;fill:rgb(100%,49.803922%,45.098039%);fill-opacity:1;" d="M 29.914062 53.984375 C 29.914062 51.90625 26.792969 51.90625 26.792969 53.984375 L 26.792969 57.671875 C 26.792969 59.75 29.914062 59.75 29.914062 57.671875 L 29.914062 53.984375 "/>
<path style=" stroke:none;fill-rule:evenodd;fill:rgb(100%,49.803922%,45.098039%);fill-opacity:1;" d="M 35.582031 53.984375 C 35.582031 51.90625 32.464844 51.90625 32.464844 53.984375 L 32.464844 57.671875 C 32.464844 59.75 35.582031 59.75 35.582031 57.671875 L 35.582031 53.984375 "/>
<path style=" stroke:none;fill-rule:evenodd;fill:rgb(100%,49.803922%,45.098039%);fill-opacity:1;" d="M 41.25 53.984375 C 41.25 51.90625 38.132812 51.90625 38.132812 53.984375 L 38.132812 57.671875 C 38.132812 59.75 41.25 59.75 41.25 57.671875 L 41.25 53.984375 "/>
<path style=" stroke:none;fill-rule:evenodd;fill:rgb(100%,49.803922%,45.098039%);fill-opacity:1;" d="M 46.921875 53.984375 C 46.921875 51.90625 43.800781 51.90625 43.800781 53.984375 L 43.800781 57.671875 C 43.800781 59.75 46.921875 59.75 46.921875 57.671875 L 46.921875 53.984375 "/>
<path style=" stroke:none;fill-rule:evenodd;fill:rgb(100%,49.803922%,45.098039%);fill-opacity:1;" d="M 46.921875 8.628906 C 46.921875 6.550781 43.800781 6.550781 43.800781 8.628906 L 43.800781 12.316406 C 43.800781 14.394531 46.921875 14.394531 46.921875 12.316406 L 46.921875 8.628906 "/>
<path style=" stroke:none;fill-rule:evenodd;fill:rgb(100%,49.803922%,45.098039%);fill-opacity:1;" d="M 41.25 8.628906 C 41.25 6.550781 38.132812 6.550781 38.132812 8.628906 L 38.132812 12.316406 C 38.132812 14.394531 41.25 14.394531 41.25 12.316406 L 41.25 8.628906 "/>
<path style=" stroke:none;fill-rule:evenodd;fill:rgb(100%,49.803922%,45.098039%);fill-opacity:1;" d="M 35.582031 8.628906 C 35.582031 6.550781 32.464844 6.550781 32.464844 8.628906 L 32.464844 12.316406 C 32.464844 14.394531 35.582031 14.394531 35.582031 12.316406 L 35.582031 8.628906 "/>
<path style=" stroke:none;fill-rule:evenodd;fill:rgb(100%,49.803922%,45.098039%);fill-opacity:1;" d="M 29.914062 8.628906 C 29.914062 6.550781 26.792969 6.550781 26.792969 8.628906 L 26.792969 12.316406 C 26.792969 14.394531 29.914062 14.394531 29.914062 12.316406 L 29.914062 8.628906 "/>
<path style=" stroke:none;fill-rule:evenodd;fill:rgb(100%,49.803922%,45.098039%);fill-opacity:1;" d="M 24.242188 8.628906 C 24.242188 6.550781 21.125 6.550781 21.125 8.628906 L 21.125 12.316406 C 21.125 14.394531 24.242188 14.394531 24.242188 12.316406 L 24.242188 8.628906 "/>
<path style=" stroke:none;fill-rule:evenodd;fill:rgb(100%,49.803922%,45.098039%);fill-opacity:1;" d="M 18.574219 8.628906 C 18.574219 6.550781 15.457031 6.550781 15.457031 8.628906 L 15.457031 12.316406 C 15.457031 14.394531 18.574219 14.394531 18.574219 12.316406 L 18.574219 8.628906 "/>
<path style=" stroke:none;fill-rule:evenodd;fill:rgb(100%,49.803922%,45.098039%);fill-opacity:1;" d="M 12.90625 8.628906 C 12.90625 6.550781 9.785156 6.550781 9.785156 8.628906 L 9.785156 12.316406 C 9.785156 14.394531 12.90625 14.394531 12.90625 12.316406 L 12.90625 8.628906 "/>
<path style=" stroke:none;fill-rule:evenodd;fill:rgb(100%,49.803922%,45.098039%);fill-opacity:1;" d="M 7.234375 8.628906 C 7.234375 6.550781 4.117188 6.550781 4.117188 8.628906 L 4.117188 12.316406 C 4.117188 14.394531 7.234375 14.394531 7.234375 12.316406 L 7.234375 8.628906 "/>
<path style=" stroke:none;fill-rule:evenodd;fill:rgb(100%,49.803922%,45.098039%);fill-opacity:1;" d="M 62.296875 68.351562 L 72.664062 68.351562 L 72.664062 62.589844 L 62.296875 62.589844 Z M 62.296875 68.351562 "/>
<path style=" stroke:none;fill-rule:evenodd;fill:rgb(100%,49.803922%,45.098039%);fill-opacity:1;" d="M 66.042969 49.632812 L 68.921875 49.632812 L 68.921875 43.871094 L 66.042969 43.871094 Z M 66.042969 49.632812 "/>
<path style=" stroke:none;fill-rule:evenodd;fill:rgb(100%,49.803922%,45.098039%);fill-opacity:1;" d="M 59.5625 49.632812 L 62.441406 49.632812 L 62.441406 43.871094 L 59.5625 43.871094 Z M 59.5625 49.632812 "/>
<path style=" stroke:none;fill-rule:evenodd;fill:rgb(100%,49.803922%,45.098039%);fill-opacity:1;" d="M 72.523438 49.632812 L 75.402344 49.632812 L 75.402344 43.871094 L 72.523438 43.871094 Z M 72.523438 49.632812 "/>
<path style=" stroke:none;fill-rule:evenodd;fill:rgb(100%,49.803922%,45.098039%);fill-opacity:1;" d="M 66.632812 30.785156 L 68.332031 30.785156 L 68.332031 29.59375 L 66.632812 29.59375 Z M 66.632812 30.785156 "/>
<path style=" stroke:none;fill-rule:evenodd;fill:rgb(100%,49.803922%,45.098039%);fill-opacity:1;" d="M 66.632812 28.945312 L 68.332031 28.945312 L 68.332031 27.753906 L 66.632812 27.753906 Z M 66.632812 28.945312 "/>
<path style=" stroke:none;fill-rule:evenodd;fill:rgb(100%,49.803922%,45.098039%);fill-opacity:1;" d="M 66.632812 27.101562 L 68.332031 27.101562 L 68.332031 25.910156 L 66.632812 25.910156 Z M 66.632812 27.101562 "/>
<path style=" stroke:none;fill-rule:evenodd;fill:rgb(100%,49.803922%,45.098039%);fill-opacity:1;" d="M 61.246094 27.101562 L 62.945312 27.101562 L 62.945312 25.910156 L 61.246094 25.910156 Z M 61.246094 27.101562 "/>
<path style=" stroke:none;fill-rule:evenodd;fill:rgb(100%,49.803922%,45.098039%);fill-opacity:1;" d="M 61.246094 28.945312 L 62.945312 28.945312 L 62.945312 27.753906 L 61.246094 27.753906 Z M 61.246094 28.945312 "/>
<path style=" stroke:none;fill-rule:evenodd;fill:rgb(100%,49.803922%,45.098039%);fill-opacity:1;" d="M 61.246094 30.785156 L 62.945312 30.785156 L 62.945312 29.59375 L 61.246094 29.59375 Z M 61.246094 30.785156 "/>
<path style=" stroke:none;fill-rule:evenodd;fill:rgb(100%,49.803922%,45.098039%);fill-opacity:1;" d="M 59.105469 18.921875 L 61.089844 18.921875 L 61.089844 13.820312 L 59.105469 13.820312 Z M 59.105469 18.921875 "/>
<path style=" stroke:none;fill-rule:evenodd;fill:rgb(100%,49.803922%,45.098039%);fill-opacity:1;" d="M 62.648438 18.921875 L 64.632812 18.921875 L 64.632812 13.820312 L 62.648438 13.820312 Z M 62.648438 18.921875 "/>
<path style=" stroke:none;fill-rule:evenodd;fill:rgb(100%,49.803922%,45.098039%);fill-opacity:1;" d="M 66.191406 18.921875 L 68.175781 18.921875 L 68.175781 13.820312 L 66.191406 13.820312 Z M 66.191406 18.921875 "/>
<path style=" stroke:none;fill-rule:evenodd;fill:rgb(100%,49.803922%,45.098039%);fill-opacity:1;" d="M 69.734375 18.921875 L 71.71875 18.921875 L 71.71875 13.820312 L 69.734375 13.820312 Z M 69.734375 18.921875 "/>
<path style=" stroke:none;fill-rule:evenodd;fill:rgb(100%,49.803922%,45.098039%);fill-opacity:1;" d="M 73.277344 18.921875 L 75.261719 18.921875 L 75.261719 13.820312 L 73.277344 13.820312 Z M 73.277344 18.921875 "/>
<path style=" stroke:none;fill-rule:evenodd;fill:rgb(100%,49.803922%,45.098039%);fill-opacity:1;" d="M 76.824219 18.921875 L 78.808594 18.921875 L 78.808594 13.820312 L 76.824219 13.820312 Z M 76.824219 18.921875 "/>
<path style=" stroke:none;fill-rule:evenodd;fill:rgb(100%,49.803922%,45.098039%);fill-opacity:1;" d="M 51.453125 10.132812 L 55.988281 10.132812 L 55.988281 3.898438 L 51.453125 3.898438 Z M 51.453125 10.132812 "/>
<path style=" stroke:none;fill-rule:evenodd;fill:rgb(100%,49.803922%,45.098039%);fill-opacity:1;" d="M 81.925781 10.132812 L 86.460938 10.132812 L 86.460938 3.898438 L 81.925781 3.898438 Z M 81.925781 10.132812 "/>
</g>
</svg>
